<svg width="150" height="36" viewBox="0 0 150 36" fill="none" xmlns="http://www.w3.org/2000/svg">
<g clip-path="url(#clip0_41_16)">
<path d="M23.566 1.398L14.071 10.902H23.566V1.398ZM23.566 1.398V4M14.049 0V36M23.566 20.404L14.071 10.9M23.566 20.404V34.029L14.071 24.525M23.566 20.404L14.07 10.9M23.566 20.404L23.565 24.47H27.64V10.9H14.07M14.071 10.9V24.525M14.071 10.9L4.575 20.404M14.071 24.525L4.575 34.029V20.404M4.575 20.404L4.574 24.47H0.5V10.9H14.07M4.575 20.404L14.07 10.9M14.07 10.902L4.574 1.398V10.902H14.07Z" stroke="#8C98A4" stroke-miterlimit="10"/>
<path d="M55.46 13.028C56.053 11.919 56.882 11.065 57.951 10.464C59.018 9.86502 60.27 9.56502 61.706 9.56502C63.142 9.56502 64.331 9.86002 65.326 10.451C66.322 11.042 67.067 11.825 67.56 12.8C68.053 13.776 68.3 14.845 68.3 16.007V17.617H57.129C57.219 19.013 57.69 20.123 58.542 20.946C59.394 21.77 60.538 22.181 61.975 22.181C63.141 22.181 64.035 21.944 64.653 21.47C65.273 20.996 65.725 20.339 66.013 19.497H68.571C68.23 20.803 67.535 21.936 66.485 22.893C65.436 23.851 63.932 24.329 61.976 24.329C60.504 24.329 59.207 24.029 58.085 23.43C56.964 22.831 56.097 21.976 55.487 20.866C54.877 19.756 54.572 18.45 54.572 16.946C54.572 15.442 54.868 14.137 55.461 13.027L55.46 13.028ZM65.609 15.604C65.609 14.387 65.295 13.435 64.667 12.745C64.039 12.056 63.052 11.712 61.705 11.712C60.449 11.712 59.421 12.047 58.623 12.718C57.824 13.389 57.335 14.352 57.156 15.604H65.609ZM71.656 9.96702V12.195C71.656 12.321 71.719 12.383 71.845 12.383C71.917 12.383 71.97 12.365 72.007 12.329C72.044 12.293 72.079 12.222 72.114 12.115C72.58 10.648 73.738 9.91402 75.587 9.91402H76.771V12.329H75.236C74.033 12.329 73.136 12.615 72.543 13.188C71.95 13.761 71.654 14.7 71.654 16.007V23.926H69.231V9.96602H71.656V9.96702ZM90.998 20.986C90.361 22.104 89.535 22.941 88.521 23.495C87.507 24.049 86.416 24.327 85.25 24.327C82.953 24.327 81.337 23.415 80.404 21.589C80.332 21.447 80.242 21.375 80.135 21.375C80.028 21.375 79.973 21.429 79.973 21.536V29.025H77.55V9.96802H79.973V12.357C79.973 12.464 80.027 12.518 80.135 12.518C80.243 12.518 80.332 12.446 80.404 12.304C81.337 10.478 82.953 9.56602 85.25 9.56602C86.416 9.56602 87.507 9.84402 88.521 10.398C89.535 10.952 90.36 11.789 90.998 12.908C91.635 14.026 91.954 15.374 91.954 16.947C91.954 18.52 91.635 19.867 90.998 20.986ZM88.198 13.094C87.309 12.172 86.138 11.711 84.685 11.711C83.232 11.711 82.06 12.172 81.172 13.094C80.283 14.016 79.957 15.3 79.957 16.946C79.957 18.592 80.283 19.877 81.172 20.798C82.061 21.72 83.232 22.181 84.685 22.181C86.138 22.181 87.31 21.721 88.198 20.798C89.087 19.876 89.531 18.592 89.531 16.946C89.531 15.3 89.087 14.016 88.198 13.094ZM95.47 4.59802V23.925H93.047V4.60002H95.47V4.59802ZM97.465 13.027C98.057 11.918 98.887 11.064 99.956 10.463C101.023 9.86402 102.275 9.56402 103.71 9.56402C105.145 9.56402 106.336 9.85902 107.331 10.45C108.327 11.041 109.072 11.824 109.565 12.799C110.059 13.775 110.305 14.844 110.305 16.006V17.616H99.134C99.224 19.012 99.695 20.122 100.547 20.945C101.399 21.769 102.543 22.18 103.98 22.18C105.146 22.18 106.039 21.943 106.658 21.469C107.278 20.995 107.73 20.338 108.018 19.496H110.576C110.235 20.802 109.539 21.935 108.49 22.892C107.441 23.85 105.937 24.328 103.981 24.328C102.509 24.328 101.212 24.028 100.09 23.429C98.969 22.83 98.102 21.975 97.492 20.865C96.882 19.755 96.577 18.449 96.577 16.945C96.577 15.441 96.873 14.136 97.466 13.026H97.465V13.027ZM107.614 15.603C107.614 14.386 107.3 13.434 106.672 12.744C106.044 12.055 105.057 11.711 103.71 11.711C102.455 11.711 101.426 12.046 100.628 12.717C99.829 13.388 99.341 14.351 99.161 15.603H107.614ZM109.227 23.388L114.772 16.542L110.223 10.503V9.96602H112.888L116.685 15.173L120.777 9.96602H123.495V10.53L118.273 16.946L123.092 23.388V23.925H120.481L116.362 18.315L111.948 23.925H109.229V23.388H109.227ZM127.013 5.42302V8.44402H124.183V5.42302H127.013ZM126.866 23.926H124.442V9.96702H126.866V23.926ZM127.63 9.96702H130.266V6.20902H132.69V9.96702H135.464L136.145 12.013H132.69V18.691C132.69 19.603 132.667 20.279 132.622 20.718C132.577 21.157 132.555 21.421 132.555 21.51C132.555 21.636 132.59 21.734 132.662 21.805C132.734 21.877 132.832 21.912 132.959 21.912C133.048 21.912 133.313 21.89 133.753 21.845C134.192 21.8 134.87 21.778 135.786 21.778H136.728V23.925H134.844C133.3 23.925 132.151 23.55 131.398 22.797C130.645 22.045 130.267 20.901 130.267 19.361V12.012H127.632V9.96602H127.63V9.96702ZM136.194 9.96702H138.664L142.675 21.678C142.73 21.822 142.815 22.011 143.09 22.011C143.365 22.011 143.45 21.821 143.504 21.678L147.515 9.96702H149.819V10.504L144.801 25.563C144.37 26.852 143.765 27.751 142.985 28.261C142.204 28.771 141.297 29.026 139.788 29.026H137.204V26.879H139.17C139.798 26.879 140.309 26.901 140.704 26.946C141.098 26.991 141.35 27.013 141.458 27.013C141.763 27.013 141.969 26.879 142.078 26.611L142.832 24.571C142.922 24.357 142.93 24.196 142.859 24.087C142.823 24.015 142.779 23.97 142.725 23.953C142.671 23.935 142.59 23.926 142.483 23.926H140.841L136.196 9.96802H136.194V9.96702ZM53.032 21.009C52.395 22.127 51.569 22.964 50.555 23.518C49.541 24.072 48.45 24.35 47.284 24.35C44.987 24.35 43.371 23.438 42.438 21.612C42.366 21.47 42.276 21.398 42.169 21.398C42.062 21.398 42.007 21.452 42.007 21.559V29.048H39.584V9.99102H42.007V12.38C42.007 12.487 42.061 12.541 42.169 12.541C42.277 12.541 42.366 12.469 42.438 12.327C43.37 10.501 44.987 9.58902 47.284 9.58902C48.45 9.58902 49.541 9.86702 50.555 10.421C51.569 10.975 52.394 11.812 53.032 12.93C53.669 14.048 53.988 15.396 53.988 16.97C53.988 18.544 53.669 19.891 53.032 21.009ZM50.232 13.117C49.343 12.195 48.172 11.734 46.719 11.734C45.266 11.734 44.094 12.195 43.206 13.117C42.317 14.039 41.991 15.323 41.991 16.969C41.991 18.615 42.317 19.9 43.206 20.821C44.095 21.743 45.266 22.204 46.719 22.204C48.172 22.204 49.344 21.744 50.232 20.821C51.121 19.899 51.565 18.615 51.565 16.969C51.565 15.323 51.121 14.039 50.232 13.117Z" fill="#8C98A4"/>
</g>
<defs>
<clipPath id="clip0_41_16">
<rect width="149.82" height="36" fill="white"/>
</clipPath>
</defs>
</svg>
