<svg width="319" height="62" viewBox="0 0 319 62" fill="none" xmlns="http://www.w3.org/2000/svg">
<path d="M11.7618 44.8485C11.7618 48.9578 13.2832 51.0098 16.3218 51.0098C19.5738 50.9578 22.2685 49.2232 24.4018 45.8098C25.1485 44.6378 25.7618 43.1978 26.2418 41.4885C26.2418 35.5165 26.7751 30.3978 27.8431 26.1285C23.5218 26.9832 19.7618 29.0632 16.5618 32.3685C13.3618 35.6765 11.7618 39.8378 11.7618 44.8485ZM49.5218 40.0485C50.4818 40.0485 50.9618 41.2778 50.9618 43.7285C50.9618 45.0618 50.4018 46.6765 49.2831 48.5698C48.1632 50.4632 46.7085 52.1978 44.9218 53.7698C43.1338 55.3432 41.1485 56.6378 38.9618 57.6512C36.7752 58.6632 34.6418 59.1685 32.5618 59.1685C29.7338 59.1685 27.8431 56.6898 26.8818 51.7285C25.4938 54.0232 23.6805 55.9032 21.4418 57.3698C19.2018 58.8378 16.2018 59.5698 12.4418 59.5698C8.68048 59.5698 5.65515 58.3978 3.36182 56.0485C1.06848 53.7032 -0.0515151 50.8485 0.00181818 47.4885C0.00181818 38.4245 3.01382 31.2778 9.04182 26.0485C11.6032 23.8632 13.9885 22.4232 16.2018 21.7298C18.4151 21.0365 20.7485 20.6885 23.2018 20.6885C25.6551 20.6885 27.6551 21.1165 29.2018 21.9685C29.9485 20.4232 30.8018 19.6498 31.7618 19.6498C33.6285 19.6498 35.4018 20.4618 37.0818 22.0898C38.7618 23.7178 39.6031 25.2485 39.6031 26.6885C38.8538 28.4498 37.7618 30.5565 36.3218 33.0098C35.8951 35.4618 35.6805 38.9032 35.6805 43.3298C35.6805 47.7578 36.2418 49.9685 37.3618 49.9685C38.7485 49.9685 42.1085 47.1978 47.4418 41.6512C48.4018 40.5832 49.0951 40.0485 49.5218 40.0485Z" fill="#C8C9CB"/>
<path d="M84.8009 34.6083C84.8009 32.8496 83.7876 31.9696 81.7609 31.9696C80.3742 31.9696 78.8276 33.3163 77.1209 36.0096C75.4129 38.7029 74.1862 41.5963 73.4409 44.6896V44.8483C73.4409 46.6643 73.7196 48.5309 74.2796 50.4496C74.8396 52.3696 75.1209 53.7029 75.1209 54.4496C75.1209 56.2629 72.8529 58.0496 68.3209 59.8096C67.6262 60.0749 67.0129 60.2109 66.4809 60.2109C65.1476 60.2109 64.2262 59.5149 63.7196 58.1296C63.2129 56.7443 62.9596 54.8643 62.9596 52.4896C62.9596 50.1163 63.0276 47.8776 63.1609 45.7709C63.2929 43.6643 63.4276 41.7189 63.5609 39.9296C63.6942 38.1429 63.8276 36.5696 63.9596 35.2096C64.0929 33.8496 64.1609 32.7443 64.1609 31.8896C64.1609 30.0776 63.3329 29.1696 61.6809 29.1696C60.0276 29.1696 58.1062 31.1029 55.9209 34.9696C53.7329 38.8376 52.6409 41.9029 52.6409 44.1683C52.6409 46.4376 52.9209 48.5309 53.4809 50.4496C54.0409 52.3696 54.3209 53.7029 54.3209 54.4496C54.3209 56.2629 52.0529 58.0496 47.5209 59.8096C46.8276 60.0749 46.2129 60.2109 45.6809 60.2109C44.3476 60.2109 43.4276 59.5149 42.9209 58.1296C42.4129 56.7443 42.1609 54.6083 42.1609 51.7283C42.1609 44.1563 42.4529 38.6896 43.0409 35.3296C43.8396 30.3683 45.6529 25.6763 48.4809 21.2483C49.4409 19.7563 50.4809 19.0096 51.6009 19.0096C53.3609 19.0096 54.9876 20.4496 56.4809 23.3296C56.9076 24.0776 57.2262 24.7696 57.4409 25.4096C60.0009 22.2096 63.0129 20.6083 66.4809 20.6083C68.7729 20.6083 70.8276 21.3683 72.6409 22.8896C74.4529 24.4096 75.3609 26.3163 75.3609 28.6083V29.4883C78.6129 25.4363 82.5876 23.4096 87.2796 23.4096C90.1609 23.4096 92.3475 24.1563 93.8396 25.6496C95.3329 27.1416 96.0809 28.9829 96.0809 31.1696C96.0809 33.3576 95.9209 35.3296 95.6009 37.0909C95.2796 38.8483 94.9209 40.5016 94.5209 42.0496C94.1209 43.5963 93.7609 44.9683 93.4409 46.1683C93.1209 47.3696 92.9596 48.3043 92.9596 48.9683C92.9596 49.6376 93.1729 49.9683 93.6009 49.9683C94.3996 49.9683 95.3862 49.4629 96.5609 48.4496C97.7329 47.4376 98.9076 46.3309 100.081 45.1296C101.254 43.9296 102.333 42.8229 103.321 41.8096C104.306 40.7963 104.988 40.2883 105.361 40.2883C106.106 40.2883 106.481 41.1976 106.481 43.0096C106.481 46.7443 104.601 50.3696 100.84 53.8896C97.0809 57.4083 93.0662 59.1683 88.8009 59.1683C84.9596 59.1683 83.0409 55.6763 83.0409 48.6896C83.0409 46.9296 83.3329 44.5016 83.9209 41.4083C84.5062 38.3176 84.8009 36.0496 84.8009 34.6083Z" fill="#C8C9CB"/>
<path d="M128.081 42.8485C128.987 40.9298 129.442 39.0618 129.442 37.2498C129.442 35.4365 128.853 34.5298 127.681 34.5298C127.201 34.5298 126.801 34.8765 126.481 35.5698C126.161 36.2632 126.001 36.9298 126.001 37.5698C126.001 39.7032 126.694 41.4632 128.081 42.8485ZM128.801 52.1298C124.587 57.0912 119.533 59.5698 113.641 59.5698C107.746 59.5698 103.333 58.0618 100.401 55.0485C97.4674 52.0365 96.0274 48.2885 96.0808 43.8098C96.0274 37.4632 98.0274 31.9965 102.081 27.4085C106.134 22.8232 111.442 20.5298 118.001 20.5298C120.987 20.5298 123.386 20.9032 125.201 21.6498C128.347 22.9285 129.921 24.1285 129.921 25.2485C129.921 26.1032 127.719 26.5432 123.322 26.5698C118.921 26.5965 115.241 28.1165 112.279 31.1285C109.322 34.1418 107.839 37.9418 107.839 42.5312C107.839 44.9298 108.547 46.9418 109.961 48.5698C111.374 50.1978 113.374 51.0098 115.961 51.0098C118.547 51.0098 120.694 50.4765 122.401 49.4085C118.613 46.8485 116.719 43.1432 116.719 38.2885C116.666 35.7298 117.587 33.3978 119.481 31.2898C121.374 29.1832 123.801 28.1165 126.761 28.0898C129.719 28.0632 131.839 28.8765 133.121 30.5298C134.401 32.1832 135.041 34.3032 135.041 36.8898C135.041 39.4765 134.427 42.2098 133.201 45.0912H133.681C136.027 45.0365 138.053 44.2098 139.761 42.6085C140.401 41.9685 140.946 41.4085 141.401 40.9298C141.853 40.4498 142.322 40.2098 142.801 40.2098C143.547 40.2098 143.921 41.0912 143.921 42.8485C143.921 46.1032 142.961 48.5432 141.041 50.1685C139.121 51.7965 137.001 52.6085 134.681 52.6085C132.361 52.6085 130.401 52.4498 128.801 52.1298Z" fill="#C8C9CB"/>
<path d="M318.018 51.5645C318.018 55.9858 314.432 59.5698 310.01 59.5698C305.591 59.5672 302.007 55.9832 302.007 51.5618C302.007 47.1405 305.594 43.5565 310.012 43.5592C314.434 43.5592 318.018 47.1432 318.018 51.5645Z" fill="#8CD7F8"/>
<path d="M192.687 12.6631C193.38 12.6631 193.728 13.5711 193.728 15.3831C193.728 17.1951 193.619 18.9031 193.408 20.5031C192.927 23.5964 192.315 26.4764 191.567 29.1431C189.648 36.3951 188.687 40.6351 188.687 41.8618V53.6218C188.687 56.5018 187.594 58.4764 185.408 59.5444C184.392 60.0231 183.422 60.4764 182.487 60.9031C181.554 61.3298 180.499 61.5444 179.327 61.5444C177.088 61.5444 175.968 58.9711 175.968 53.8231C175.968 48.6764 177.168 42.1818 179.567 34.3431C181.968 26.5031 184.474 20.5298 187.088 16.4218C187.619 15.6231 188.392 14.7978 189.408 13.9431C190.422 13.0898 191.515 12.6631 192.687 12.6631ZM227.487 41.4631C228.392 41.4631 228.848 42.6898 228.848 45.1431C228.848 46.4764 228.288 48.0911 227.168 49.9844C226.047 51.8778 224.594 53.6111 222.807 55.1818C221.02 56.7578 219.034 58.0524 216.848 59.0618C214.66 60.0778 212.58 60.5831 210.608 60.5831C208.635 60.5831 207.088 60.2111 205.968 59.4631C204.848 58.7164 203.968 57.7031 203.327 56.4244C202.422 54.6111 201.674 51.1564 201.088 46.0618C200.499 40.9711 199.914 37.4111 199.327 35.3831C197.939 35.1164 196.728 34.5711 195.687 33.7431C194.648 32.9164 194.127 31.9031 194.127 30.7031C194.127 29.5031 194.674 28.6351 195.768 28.1018C196.859 27.5711 198.114 27.3018 199.528 27.3018C200.939 27.3018 202.208 27.6498 203.327 28.3431C204.82 27.1164 206.034 25.6631 206.968 23.9818C207.9 22.3018 208.367 20.0364 208.367 17.1831C208.367 14.3311 207.408 12.0498 205.487 10.3431C203.567 8.6351 200.755 7.7831 197.047 7.7831C193.34 7.7831 190.499 8.07644 188.528 8.66311C186.554 9.24977 184.859 9.8911 183.447 10.5831C182.034 11.2764 180.78 11.9164 179.687 12.5031C178.594 13.0898 177.567 13.3831 176.608 13.3831C175.648 13.3831 175.168 13.0764 175.168 12.4631C175.168 11.8511 175.674 10.8511 176.687 9.4631C177.7 8.07644 179.195 6.6911 181.168 5.30177C186.127 1.83644 191.728 0.11644 197.968 0.143105C204.208 0.169773 209.354 1.35777 213.408 3.7031C218.154 6.47644 220.528 10.6351 220.528 16.1831C220.58 20.7711 219.38 24.5831 216.927 27.6231C214.474 30.6631 211.435 32.8511 207.807 34.1831C208.608 35.9418 209.26 37.8351 209.768 39.8618C210.272 41.8898 210.768 43.7578 211.247 45.4631C211.728 47.1711 212.272 48.5831 212.887 49.7031C213.499 50.8231 214.247 51.3831 215.127 51.3831C216.007 51.3831 217.075 50.8644 218.327 49.8231C219.58 48.7831 220.82 47.6511 222.047 46.4244C223.272 45.1951 224.38 44.0618 225.367 43.0231C226.354 41.9818 227.059 41.4631 227.487 41.4631Z" fill="#8CD7F8"/>
<path d="M296.369 41.4631C297.276 41.4631 297.729 42.6898 297.729 45.1431C297.729 46.4764 297.169 48.0911 296.049 49.9844C294.929 51.8778 293.476 53.6111 291.689 55.1818C289.9 56.7578 287.913 58.0511 285.729 59.0618C283.541 60.0778 281.233 60.5831 278.809 60.5831C276.383 60.5831 274.489 59.7964 273.129 58.2231C271.768 56.6511 271.088 54.8898 271.088 52.9418C271.088 50.9964 271.408 48.7964 272.049 46.3431C272.689 43.8898 273.383 41.3298 274.129 38.6631C276.156 31.5711 277.195 26.5831 277.249 23.7031C277.249 22.4764 277.088 21.5298 276.768 20.8618C276.448 20.1951 275.836 19.8618 274.929 19.8618C273.328 19.8618 271.621 20.8231 269.809 22.7418C267.995 24.6631 266.288 27.1164 264.689 30.1018C261.008 36.9298 259.063 43.5964 258.848 50.1031C258.955 50.8511 259.063 51.5964 259.169 52.3431C259.276 53.0911 259.328 53.8898 259.328 54.7418C259.328 56.4498 258.489 58.0098 256.809 59.4244C255.129 60.8351 253.249 61.5444 251.169 61.5444C249.943 61.5444 249.036 60.9418 248.448 59.7418C247.859 58.5444 247.567 57.0618 247.567 55.3044C247.567 53.5444 247.965 51.1431 248.768 48.1031C249.569 45.0618 250.448 41.8351 251.408 38.4218C253.968 29.4098 255.276 22.6898 255.328 18.2631C255.328 16.0218 255.049 14.2631 254.489 12.9818C253.929 11.7031 252.848 11.0631 251.249 11.0631C248.369 11.0631 245.512 13.1164 242.687 17.2231C239.859 21.3311 237.328 27.7031 235.085 36.3431C234.5 38.5831 234.047 40.5311 233.727 42.1818L233.645 43.7031C234.659 48.6111 235.167 51.8098 235.167 53.3044C235.167 56.3978 234.072 58.4764 231.888 59.5444C230.872 60.0231 229.897 60.4764 228.965 60.9031C228.033 61.3298 227.033 61.5444 225.965 61.5444C223.299 61.5444 221.965 58.9964 221.965 53.9031C221.965 48.8098 223.38 38.8511 226.208 24.0218C227.219 18.6898 227.727 15.7031 227.727 15.0631C227.727 10.7418 226.632 8.5831 224.448 8.5831C223.7 8.5831 223.02 8.79644 222.405 9.2231C221.793 9.64977 221.179 10.1018 220.567 10.5831C219.952 11.0631 219.328 11.5164 218.687 11.9431C218.047 12.3698 217.312 12.5831 216.487 12.5831C215.659 12.5831 215.247 11.8618 215.247 10.4218C215.247 7.48977 216.607 5.08977 219.328 3.2231C221.94 1.30177 225.115 0.343102 228.845 0.343102C233.645 0.343102 236.473 2.5831 237.328 7.0631C237.539 8.39643 237.7 9.80977 237.807 11.3018C241.752 3.89111 246.739 0.183105 252.768 0.183105C259.328 0.183105 263.088 3.33111 264.049 9.6231C264.369 11.4364 264.503 13.3831 264.448 15.4631V16.1018C267.913 11.3018 272.02 8.9031 276.768 8.9031C283.489 8.9031 286.848 12.9564 286.848 21.0631C286.848 24.5831 286.301 28.7031 285.208 33.4218C284.115 38.1431 283.315 41.5311 282.809 43.5831C282.301 45.6351 282.049 47.2231 282.049 48.3431C282.049 50.3698 282.755 51.3818 284.169 51.3818C285.58 51.3818 288.955 48.6111 294.288 43.0618C295.249 41.9964 295.943 41.4631 296.369 41.4631Z" fill="#8CD7F8"/>
<path d="M182.429 30.8466C183.773 30.8466 184.45 32.1333 184.45 34.7026C184.45 37.2733 183.872 40.0333 182.708 42.9839C181.549 45.9346 179.79 48.7786 177.432 51.5146C175.072 54.2546 172.06 56.5959 168.393 58.5306C164.721 60.4706 160.398 61.4399 155.422 61.4399C150.441 61.4399 146.082 59.7786 142.341 56.4479C138.596 53.1173 136.726 48.3119 136.726 42.0333C136.726 35.7586 137.604 30.0679 139.364 24.9693C141.122 19.8706 143.442 15.4666 146.325 11.7586C149.206 8.04927 152.484 5.16261 156.152 3.09727C159.82 1.03461 163.298 -6.10352e-05 166.593 -6.10352e-05C172.358 -6.10352e-05 175.241 2.57328 175.241 7.71194C175.241 10.6639 174.7 13.0213 173.614 14.7919C172.525 16.5599 171.424 17.4453 170.301 17.4453C168.801 17.4453 167.494 16.8573 166.372 15.6746C165.246 14.4973 164.012 13.8853 162.664 13.8439C161.314 13.8026 157.656 13.7013 154.544 18.7013C152.369 22.1959 152.704 21.8413 151.877 24.2013C150.232 28.9226 149.266 32.5466 149.266 38.8666C149.341 41.9013 152.054 46.5413 154.45 48.0599C156.096 49.0693 158.06 49.9186 160.29 49.6373C165.101 49.0333 167.801 46.7519 169.768 44.6453C171.582 42.6999 173.181 40.8559 174.905 38.8719C176.624 36.8933 178.14 35.0626 179.453 33.3746C180.762 31.6893 181.752 30.8466 182.429 30.8466Z" fill="#8CD7F8"/>
</svg>
