<?xml version="1.0" encoding="UTF-8"?>
<svg width="400" height="300" viewBox="0 0 400 300" fill="none" xmlns="http://www.w3.org/2000/svg">
  <!-- Background Elements -->
  <circle cx="200" cy="150" r="120" fill="url(#paint0_radial)" fill-opacity="0.2"/>
  <circle cx="200" cy="150" r="80" fill="url(#paint1_radial)" fill-opacity="0.15"/>
  
  <!-- Building/Enterprise Elements -->
  <rect x="120" y="100" width="160" height="160" rx="4" fill="#5E35B1" fill-opacity="0.8"/>
  <rect x="135" y="115" width="30" height="30" rx="2" fill="white" fill-opacity="0.9"/>
  <rect x="175" y="115" width="30" height="30" rx="2" fill="white" fill-opacity="0.9"/>
  <rect x="215" y="115" width="30" height="30" rx="2" fill="white" fill-opacity="0.9"/>
  <rect x="135" y="155" width="30" height="30" rx="2" fill="white" fill-opacity="0.9"/>
  <rect x="175" y="155" width="30" height="30" rx="2" fill="white" fill-opacity="0.9"/>
  <rect x="215" y="155" width="30" height="30" rx="2" fill="white" fill-opacity="0.9"/>
  <rect x="135" y="195" width="30" height="30" rx="2" fill="white" fill-opacity="0.9"/>
  <rect x="175" y="195" width="30" height="30" rx="2" fill="white" fill-opacity="0.9"/>
  <rect x="215" y="195" width="30" height="30" rx="2" fill="white" fill-opacity="0.9"/>
  
  <!-- AI/Tech Elements -->
  <circle cx="200" cy="70" r="30" fill="#2b1869"/>
  <path d="M185 70 L215 70 M200 55 L200 85" stroke="white" stroke-width="3"/>
  <path d="M190 60 L210 80 M210 60 L190 80" stroke="white" stroke-width="3"/>
  
  <!-- Connection Lines -->
  <line x1="200" y1="100" x2="200" y2="90" stroke="#5E35B1" stroke-width="2"/>
  <line x1="150" y1="100" x2="170" y2="80" stroke="#5E35B1" stroke-width="2"/>
  <line x1="250" y1="100" x2="230" y2="80" stroke="#5E35B1" stroke-width="2"/>
  
  <!-- Small Decorative Elements -->
  <circle cx="120" cy="70" r="8" fill="#5E35B1"/>
  <circle cx="280" cy="70" r="8" fill="#5E35B1"/>
  <circle cx="150" cy="40" r="5" fill="#5E35B1"/>
  <circle cx="250" cy="40" r="5" fill="#5E35B1"/>
  
  <!-- Gradients -->
  <defs>
    <radialGradient id="paint0_radial" cx="0" cy="0" r="1" gradientUnits="userSpaceOnUse" gradientTransform="translate(200 150) rotate(90) scale(120)">
      <stop stop-color="#5E35B1"/>
      <stop offset="1" stop-color="#2b1869" stop-opacity="0"/>
    </radialGradient>
    <radialGradient id="paint1_radial" cx="0" cy="0" r="1" gradientUnits="userSpaceOnUse" gradientTransform="translate(200 150) rotate(90) scale(80)">
      <stop stop-color="white"/>
      <stop offset="1" stop-color="white" stop-opacity="0"/>
    </radialGradient>
  </defs>
</svg>
