<svg width="1704" height="1697" viewBox="0 0 1704 1697" fill="none" xmlns="http://www.w3.org/2000/svg">
<path d="M766.828 34.7493C813.256 -11.5775 888.451 -11.5839 934.884 34.735L993.424 93.1287L1136 235.349L985.923 385.115L850.852 250.369L250.691 849.216L475.769 1073.79L775.847 774.337L925.924 924.099L625.77 1223.49L760.846 1358.23L610.773 1508L34.8973 933.33C-11.6334 886.895 -11.6322 811.54 34.8997 765.109L766.828 34.7493Z" fill="white"/>
<path d="M865.537 682.433L1016.09 832.246L1226.85 622.554L1452.65 847.199L700 1596.04L766.692 1662.41C813.046 1708.53 887.93 1708.53 934.289 1662.41L1668.96 931.504C1715.68 885.02 1715.68 809.378 1668.96 762.89L1226.85 323L865.537 682.433Z" fill="#7C3AED"/>
</svg>
