<svg width="2150" height="512" viewBox="0 0 2150 512" fill="none" xmlns="http://www.w3.org/2000/svg">
<path d="M235.881 48.1609C247.592 36.4683 266.559 36.4667 278.271 48.1573L293.037 62.8955L329 98.7911L291.145 136.591L257.075 102.582L105.692 253.727L162.465 310.409L238.156 234.828L276.011 272.627L200.301 348.191L234.372 382.2L196.518 420L51.2607 274.957C39.5239 263.237 39.5242 244.218 51.2613 232.499L235.881 48.1609Z" fill="white"/>
<path d="M260.789 211.693L298.796 249.494L352 196.584L409.003 253.267L219 442.217L235.836 458.962C247.538 470.6 266.442 470.6 278.145 458.963L463.608 274.539C475.403 262.81 475.404 243.724 463.609 231.994L352 121L260.789 211.693Z" fill="#7C3AED"/>
<path d="M2073.02 369.017C2073.05 368.979 2073.02 368.92 2072.97 368.92C2055.11 368.9 2039.87 364.953 2026.9 357.077C2014.07 349.182 2004.08 338.097 1997.1 323.999C1990.1 309.707 1986.72 293.159 1986.72 274.179C1986.72 255.2 1990.1 238.652 1997.1 224.183C2004.08 209.697 2013.87 198.419 2026.33 190.347C2038.77 182.259 2053.49 178.117 2070.27 178.117C2079.89 178.117 2089.51 179.809 2098.76 183.016C2108.19 186.206 2116.67 191.475 2124.4 198.613C2132.14 205.75 2138.38 215.16 2142.89 227.003C2147.42 238.846 2149.68 253.314 2149.68 270.426V277.444C2149.68 280.206 2147.44 282.444 2144.68 282.444H2011.89C2009.13 282.444 2006.89 280.206 2006.89 277.444V263.019C2006.89 260.258 2009.13 258.019 2011.89 258.019H2115.63C2118.39 258.019 2120.65 255.778 2120.47 253.022C2119.9 244.638 2117.89 236.959 2114.41 230.193C2110.25 222.104 2104.42 215.53 2096.88 210.825C2089.32 206.138 2080.45 203.688 2070.07 203.688C2058.78 203.688 2048.96 206.508 2040.66 212.147C2032.36 217.592 2026.14 224.923 2021.8 233.77C2017.47 242.599 2015.2 252.186 2015.2 262.337V278.691C2015.2 292.595 2017.66 304.438 2022.37 314.218C2027.27 323.805 2034.07 331.136 2042.74 336.212C2051.41 341.093 2061.4 343.737 2072.93 343.737C2080.45 343.737 2087.06 342.609 2093.11 340.529C2099.13 338.274 2104.42 335.084 2108.95 330.943C2112.42 327.632 2115.22 323.657 2117.36 319.099C2118.48 316.721 2121.1 315.332 2123.63 316.04L2141.73 321.104C2144.43 321.86 2146 324.706 2144.96 327.312C2142.03 334.601 2137.72 341.204 2132.14 346.926C2125.36 353.887 2116.86 359.333 2106.87 363.28C2096.91 367.021 2085.62 369.099 2073.06 369.114C2073.01 369.114 2072.98 369.054 2073.02 369.017Z" fill="white"/>
<path d="M1854.49 368.92C1839.04 368.92 1825.45 364.972 1813.57 357.271C1801.68 349.376 1792.44 338.274 1785.83 324.175C1779.24 309.901 1775.84 292.983 1775.84 273.422C1775.84 253.878 1779.24 237.154 1785.83 223.055C1792.44 208.763 1801.87 197.855 1813.77 189.96C1825.63 182.259 1839.41 178.311 1855.06 178.311C1867.13 178.311 1876.56 180.373 1883.73 184.32C1890.9 188.268 1896.17 192.779 1899.94 197.855C1903.45 202.395 1906.3 206.269 1908.35 209.365C1908.65 209.813 1909.15 210.085 1909.69 210.085C1910.56 210.085 1911.27 209.374 1911.27 208.498V124.098C1911.27 121.337 1913.51 119.098 1916.27 119.098H1934.75C1937.51 119.098 1939.75 121.337 1939.75 124.098V360.166C1939.75 362.928 1937.51 365.166 1934.75 365.166H1917.21C1914.45 365.166 1912.21 362.928 1912.21 360.166V338.946C1912.21 337.747 1911.24 336.776 1910.04 336.776C1909.28 336.776 1908.58 337.168 1908.18 337.803C1906.14 340.99 1903.36 344.82 1899.94 349.552C1895.99 354.628 1890.51 359.139 1883.36 363.087C1876.19 367.034 1866.76 368.92 1854.88 368.92H1854.49ZM1858.28 343.446C1858.28 343.392 1858.32 343.349 1858.38 343.349C1869.83 343.332 1879.42 340.337 1887.13 334.52C1895.04 328.511 1901.09 320.228 1905.03 309.707C1909.19 298.992 1911.27 286.78 1911.27 272.858C1911.27 258.953 1909.19 247.111 1905.23 236.766C1901.26 226.439 1895.24 218.35 1887.32 212.517C1879.39 206.701 1869.77 203.688 1858.09 203.688C1846.39 203.688 1836.01 206.701 1827.9 212.905C1819.97 218.914 1813.94 227.179 1809.98 237.718C1806.01 248.045 1804.14 259.887 1804.14 272.858C1804.14 285.828 1806.21 297.864 1810.17 308.579C1814.33 319.294 1820.36 327.753 1828.29 334.15C1836.37 340.336 1846.14 343.526 1858.18 343.543C1858.24 343.543 1858.28 343.499 1858.28 343.446Z" fill="white"/>
<path d="M1708.99 365.166C1706.23 365.166 1703.99 362.928 1703.99 360.166V185.567C1703.99 182.805 1706.23 180.567 1708.99 180.567H1727.45C1730.22 180.567 1732.45 182.805 1732.45 185.567V360.166C1732.45 362.928 1730.22 365.166 1727.45 365.166H1708.99ZM1718.51 149.921C1713.03 149.921 1708.13 148.053 1704.17 144.281C1700.2 140.528 1698.32 136.016 1698.32 130.747C1698.32 125.495 1700.2 120.984 1704.17 117.213C1708.13 113.459 1713.03 111.573 1718.51 111.573C1723.98 111.573 1728.88 113.459 1732.65 117.213C1736.61 120.984 1738.69 125.495 1738.69 130.747C1738.69 136.016 1736.61 140.528 1732.65 144.281C1728.7 148.053 1723.98 149.921 1718.51 149.921Z" fill="white"/>
<path d="M1623.44 289.599V185.567C1623.44 182.805 1625.68 180.567 1628.44 180.567H1646.92C1649.68 180.567 1651.92 182.805 1651.92 185.567V360.166C1651.92 362.928 1649.68 365.166 1646.92 365.166H1628.44C1625.68 365.166 1623.44 362.928 1623.44 360.166V335.106C1623.44 334.471 1622.92 333.956 1622.29 333.956C1621.84 333.956 1621.43 334.217 1621.24 334.622C1616.89 343.723 1610.2 351.4 1601.38 357.835C1592.12 364.408 1580.62 367.598 1566.66 367.598C1555.17 367.598 1544.79 365.166 1535.73 360.091C1526.67 355.015 1519.71 347.297 1514.62 336.97C1509.53 326.625 1506.88 313.655 1506.88 297.864V185.567C1506.88 182.805 1509.12 180.567 1511.88 180.567H1530.36C1533.12 180.567 1535.36 182.805 1535.36 185.567V295.979C1535.36 309.513 1539.13 320.228 1546.67 328.123C1554.22 336.212 1564.03 340.159 1575.91 340.159C1583.08 340.159 1590.24 338.274 1597.41 334.714C1604.78 331.136 1610.98 325.497 1615.9 318.166C1620.99 310.641 1623.44 301.248 1623.44 289.776V289.599Z" fill="white"/>
<path d="M1374.46 438.089C1360.7 438.089 1348.82 436.398 1339.01 432.838C1329.21 429.454 1320.89 424.749 1314.3 419.11C1309.05 414.63 1304.76 409.918 1301.32 404.963C1299.83 402.815 1300.48 399.909 1302.62 398.414L1317.58 387.976C1319.76 386.459 1322.73 386.906 1324.43 388.941C1326.42 391.334 1328.68 393.916 1331.27 396.746C1335.24 401.064 1340.52 405.011 1347.5 408.201C1354.48 411.408 1363.52 413.1 1374.66 413.1C1389.57 413.1 1402.01 409.523 1411.61 402.192C1421.43 395.054 1426.13 383.776 1426.13 368.356V332.502C1426.13 331.641 1425.44 330.943 1424.57 330.943C1424.03 330.943 1423.53 331.224 1423.24 331.682C1421.19 334.924 1418.34 338.817 1414.84 343.349C1411.05 348.248 1405.59 352.566 1398.43 356.513C1391.24 360.267 1381.81 362.153 1369.76 362.153C1354.85 362.153 1341.46 358.575 1329.58 351.632C1317.68 344.477 1308.45 334.326 1301.47 320.792C1294.69 307.257 1291.28 290.903 1291.28 271.73C1291.28 252.556 1294.69 236.396 1301.28 222.298C1307.88 208.199 1317.31 197.291 1329.21 189.59C1341.07 181.888 1354.85 177.941 1370.5 177.941C1382.57 177.941 1392.19 180.003 1399.17 183.95C1406.34 187.898 1411.81 192.409 1415.58 197.485C1419.05 201.955 1421.87 205.805 1423.91 208.871C1424.26 209.385 1424.83 209.697 1425.45 209.697C1426.46 209.697 1427.28 208.879 1427.28 207.869V185.373C1427.28 182.612 1429.52 180.373 1432.28 180.373H1449.82C1452.59 180.373 1454.82 182.612 1454.82 185.373V370.242C1454.82 386.032 1451.23 399.002 1443.88 408.959C1436.71 418.916 1427.09 426.247 1415.01 430.952C1402.94 435.658 1389.57 438.089 1374.66 438.089H1374.46ZM1373.53 336.776C1385.04 336.776 1394.66 334.15 1402.38 328.881C1410.31 323.611 1416.34 316.104 1420.3 306.323C1424.46 296.543 1426.52 284.894 1426.52 271.166C1426.52 257.455 1424.46 246.177 1420.49 236.026C1416.53 225.875 1410.48 217.786 1402.57 212.147C1394.66 206.314 1385.04 203.494 1373.34 203.494C1361.63 203.494 1351.25 206.508 1343.15 212.711C1335.24 218.72 1329.21 227.003 1325.24 237.154C1321.28 247.481 1319.39 258.759 1319.39 271.36C1319.39 283.96 1321.45 295.415 1325.42 305.389C1329.58 315.152 1335.61 322.871 1343.54 328.511C1351.64 333.956 1361.44 336.776 1373.53 336.776Z" fill="white"/>
<path d="M1175.76 368.92C1175.7 368.801 1175.58 368.726 1175.44 368.726C1156.48 368.697 1140.15 364.943 1126.42 357.271C1112.85 349.552 1102.3 338.467 1094.93 324.369C1087.58 310.077 1083.81 293.159 1083.81 273.809C1083.81 254.442 1087.58 238.088 1094.93 223.796C1102.3 209.521 1112.66 198.242 1126.25 190.347C1139.83 182.259 1155.68 178.311 1173.77 178.311C1186.04 178.311 1197.35 180.197 1207.91 184.144C1218.48 187.898 1227.72 193.731 1235.65 201.626C1243.56 209.327 1249.8 219.108 1254.13 230.95C1258.47 242.599 1260.73 256.327 1260.73 272.117V281.216C1260.73 283.977 1258.49 286.216 1255.73 286.216H1109.36C1106.6 286.216 1104.36 283.977 1104.36 281.216V259.442C1104.36 256.68 1106.6 254.442 1109.36 254.442H1207.44C1210.2 254.442 1212.47 252.196 1212.17 249.451C1211.57 244.103 1210 239.226 1207.54 234.898C1204.33 229.259 1199.8 224.747 1194.15 221.54C1188.49 218.35 1181.88 216.658 1174.53 216.658C1167.17 216.658 1159.82 218.544 1153.79 222.104C1147.75 225.681 1143.22 230.387 1139.83 236.396C1136.43 242.405 1134.74 248.996 1134.74 256.134V286.216C1134.74 295.415 1136.43 303.31 1139.83 309.901C1143.22 316.474 1148.12 321.743 1154.35 325.303C1160.58 328.881 1168.12 330.766 1176.59 330.766C1182.27 330.766 1187.54 330.009 1192.26 328.317C1196.97 326.625 1201.13 324.369 1204.53 321.179C1207.04 318.794 1209.15 316 1210.76 312.797C1211.76 310.804 1213.78 309.44 1216 309.589L1254.02 312.14C1257.06 312.344 1259.23 315.207 1258.35 318.126C1255.62 327.224 1251.17 335.205 1244.88 342.415C1237.53 350.874 1227.91 357.447 1216.21 362.153C1204.58 366.836 1191.26 369.092 1176.07 369.113C1175.94 369.114 1175.82 369.039 1175.76 368.92Z" fill="white"/>
<path d="M931.682 258.389C931.628 258.389 931.584 258.433 931.584 258.487V360.166C931.584 362.928 929.345 365.166 926.584 365.166H885.284C882.522 365.166 880.284 362.928 880.284 360.166V185.567C880.284 182.805 882.522 180.567 885.284 180.567H924.328C927.089 180.567 929.328 182.805 929.328 185.567V211.742C929.328 212.481 929.927 213.081 930.667 213.081C931.22 213.081 931.714 212.741 931.922 212.229C936.107 201.917 942.784 193.737 952.15 187.528C961.772 181.131 973.473 178.117 987.237 178.117C1000.07 178.117 1011.38 180.937 1020.81 186.576C1030.43 192.215 1037.78 200.111 1043.07 210.649C1048.35 220.976 1050.98 233.382 1050.98 247.675V360.166C1050.98 362.928 1048.74 365.166 1045.98 365.166H1004.68C1001.92 365.166 999.678 362.928 999.678 360.166V256.697C999.678 245.419 996.859 236.59 991.008 230.193C985.157 223.796 977.051 220.606 966.865 220.606C959.886 220.606 953.841 222.104 948.572 225.117C943.285 228.131 939.32 232.448 936.307 238.088C933.498 243.704 931.984 250.439 931.78 258.293C931.779 258.346 931.735 258.389 931.682 258.389Z" fill="white"/>
<path d="M792.676 365.166C789.914 365.166 787.676 362.928 787.676 360.166V185.567C787.676 182.805 789.914 180.567 792.676 180.567H833.976C836.737 180.567 838.976 182.805 838.976 185.567V360.166C838.976 362.928 836.737 365.166 833.976 365.166H792.676ZM813.511 156.882C805.968 156.882 799.377 154.432 793.896 149.357C788.433 144.281 785.79 138.078 785.79 130.941C785.79 123.804 788.433 117.777 793.896 112.701C799.377 107.626 805.968 105 813.511 105C821.053 105 827.662 107.626 833.125 112.701C838.606 117.777 841.249 123.804 841.249 130.941C841.249 138.078 838.606 144.281 833.125 149.357C827.662 154.432 821.247 156.882 813.511 156.882Z" fill="white"/>
<path d="M598 365.166C593.582 365.166 590 361.584 590 357.166V127.098C590 122.68 593.582 119.098 598 119.098H745.54C749.958 119.098 753.54 122.68 753.54 127.098V153.957C753.54 158.375 749.958 161.957 745.54 161.957H650.252C645.833 161.957 642.252 165.539 642.252 169.957V212.606C642.252 217.024 645.833 220.606 650.252 220.606H734.596C739.015 220.606 742.596 224.188 742.596 228.606V255.465C742.596 259.883 739.015 263.465 734.596 263.465H650.252C645.833 263.465 642.252 267.046 642.252 271.465V357.166C642.252 361.584 638.67 365.166 634.252 365.166H598Z" fill="white"/>
</svg>
