<svg width="150" height="36" viewBox="0 0 150 36" fill="none" xmlns="http://www.w3.org/2000/svg">
<path d="M16.457 3.36006C17.2741 2.5443 18.5973 2.54419 19.4145 3.35981L20.4446 4.38806L22.9537 6.8924L20.3126 9.52961L17.9357 7.15689L7.37406 17.7019L11.335 21.6564L16.6157 16.3834L19.2568 19.0205L13.9747 24.2924L16.3517 26.6651L13.7108 29.3023L3.57652 19.183C2.75768 18.3654 2.7577 17.0385 3.57657 16.2209L16.457 3.36006Z" fill="white"/>
<path d="M18.1948 14.7693L20.8465 17.4065L24.5584 13.7151L28.5353 17.6698L15.2793 30.8523L16.4539 32.0206C17.2703 32.8325 18.5892 32.8325 19.4057 32.0206L32.345 19.1539C33.1679 18.3356 33.1679 17.004 32.345 16.1856L24.5584 8.44183L18.1948 14.7693Z" fill="#7C3AED"/>
<path d="M144.629 25.7454C144.631 25.7427 144.629 25.7386 144.626 25.7386C143.38 25.7372 142.317 25.4618 141.412 24.9123C140.517 24.3615 139.82 23.5882 139.333 22.6046C138.844 21.6075 138.608 20.4529 138.608 19.1288C138.608 17.8046 138.844 16.6501 139.333 15.6407C139.82 14.63 140.503 13.8432 141.372 13.28C142.24 12.7157 143.267 12.4268 144.437 12.4268C145.109 12.4268 145.78 12.5448 146.425 12.7685C147.083 12.9911 147.675 13.3587 148.214 13.8567C148.754 14.3546 149.189 15.0112 149.504 15.8374C149.82 16.6637 149.978 17.6731 149.978 18.8669V19.3565C149.978 19.5492 149.821 19.7054 149.629 19.7054H140.364C140.172 19.7054 140.016 19.5492 140.016 19.3565V18.3502C140.016 18.1575 140.172 18.0013 140.364 18.0013H147.602C147.795 18.0013 147.952 17.845 147.94 17.6527C147.9 17.0678 147.76 16.532 147.517 16.06C147.227 15.4956 146.82 15.037 146.294 14.7087C145.767 14.3817 145.148 14.2108 144.424 14.2108C143.636 14.2108 142.951 14.4075 142.372 14.8009C141.793 15.1808 141.359 15.6923 141.056 16.3095C140.754 16.9255 140.595 17.5944 140.595 18.3026V19.4435C140.595 20.4136 140.767 21.2399 141.096 21.9222C141.437 22.591 141.912 23.1025 142.517 23.4566C143.122 23.7972 143.819 23.9816 144.623 23.9816C145.148 23.9816 145.609 23.9029 146.031 23.7578C146.451 23.6005 146.82 23.3779 147.136 23.089C147.378 22.858 147.574 22.5807 147.723 22.2627C147.801 22.0968 147.984 21.9999 148.16 22.0493L149.423 22.4026C149.611 22.4553 149.721 22.6539 149.648 22.8357C149.444 23.3442 149.143 23.8049 148.754 24.2041C148.281 24.6898 147.688 25.0697 146.991 25.3451C146.296 25.6061 145.508 25.7511 144.632 25.7521C144.629 25.7521 144.627 25.7479 144.629 25.7454Z" fill="white"/>
<path d="M129.383 25.7386C128.305 25.7386 127.357 25.4631 126.528 24.9259C125.699 24.3751 125.054 23.6005 124.593 22.6168C124.133 21.621 123.896 20.4407 123.896 19.0759C123.896 17.7124 124.133 16.5456 124.593 15.562C125.054 14.5648 125.712 13.8038 126.542 13.253C127.37 12.7157 128.331 12.4403 129.423 12.4403C130.265 12.4403 130.923 12.5841 131.423 12.8595C131.923 13.135 132.291 13.4497 132.554 13.8038C132.799 14.1206 132.998 14.3908 133.141 14.6068C133.162 14.6381 133.197 14.6571 133.234 14.6571C133.295 14.6571 133.345 14.6075 133.345 14.5464V8.65798C133.345 8.46535 133.501 8.30914 133.693 8.30914H134.983C135.175 8.30914 135.332 8.46535 135.332 8.65798V25.1278C135.332 25.3205 135.175 25.4767 134.983 25.4767H133.759C133.566 25.4767 133.41 25.3205 133.41 25.1278V23.6474C133.41 23.5637 133.343 23.496 133.259 23.496C133.206 23.496 133.157 23.5233 133.129 23.5676C132.987 23.79 132.793 24.0572 132.554 24.3873C132.279 24.7415 131.896 25.0562 131.397 25.3316C130.897 25.607 130.239 25.7386 129.41 25.7386H129.383ZM129.648 23.9613C129.648 23.9576 129.65 23.9546 129.655 23.9546C130.453 23.9534 131.123 23.7444 131.66 23.3386C132.212 22.9194 132.634 22.3415 132.909 21.6074C133.199 20.8599 133.345 20.0079 133.345 19.0366C133.345 18.0665 133.199 17.2403 132.923 16.5185C132.646 15.7981 132.226 15.2337 131.674 14.8267C131.12 14.421 130.449 14.2108 129.634 14.2108C128.818 14.2108 128.094 14.421 127.528 14.8538C126.975 15.2731 126.554 15.8497 126.278 16.585C126.001 17.3054 125.87 18.1316 125.87 19.0366C125.87 19.9415 126.015 20.7812 126.291 21.5287C126.581 22.2763 127.002 22.8665 127.555 23.3128C128.119 23.7444 128.801 23.9669 129.641 23.9681C129.645 23.9681 129.648 23.965 129.648 23.9613Z" fill="white"/>
<path d="M119.232 25.4767C119.039 25.4767 118.883 25.3206 118.883 25.1279V12.9466C118.883 12.7539 119.039 12.5977 119.232 12.5977H120.52C120.713 12.5977 120.868 12.7539 120.868 12.9466V25.1279C120.868 25.3206 120.713 25.4767 120.52 25.4767H119.232ZM119.896 10.4596C119.514 10.4596 119.172 10.3293 118.895 10.0661C118.618 9.8043 118.487 9.48951 118.487 9.1219C118.487 8.75548 118.618 8.44076 118.895 8.17767C119.172 7.91576 119.514 7.78418 119.896 7.78418C120.278 7.78418 120.619 7.91576 120.882 8.17767C121.159 8.44076 121.304 8.75548 121.304 9.1219C121.304 9.48951 121.159 9.8043 120.882 10.0661C120.607 10.3293 120.278 10.4596 119.896 10.4596Z" fill="white"/>
<path d="M113.263 20.2045V12.9465C113.263 12.7538 113.42 12.5977 113.612 12.5977H114.902C115.094 12.5977 115.25 12.7538 115.25 12.9465V25.1278C115.25 25.3205 115.094 25.4767 114.902 25.4767H113.612C113.42 25.4767 113.263 25.3205 113.263 25.1278V23.3794C113.263 23.3351 113.227 23.2992 113.183 23.2992C113.152 23.2992 113.123 23.3174 113.11 23.3457C112.806 23.9806 112.34 24.5162 111.724 24.9652C111.078 25.4238 110.276 25.6463 109.302 25.6463C108.5 25.6463 107.776 25.4767 107.144 25.1226C106.512 24.7684 106.026 24.23 105.671 23.5095C105.316 22.7877 105.131 21.8829 105.131 20.7812V12.9465C105.131 12.7538 105.288 12.5977 105.48 12.5977H106.769C106.962 12.5977 107.118 12.7538 107.118 12.9465V20.6497C107.118 21.5939 107.381 22.3414 107.907 22.8923C108.434 23.4566 109.119 23.732 109.947 23.732C110.448 23.732 110.947 23.6005 111.447 23.3521C111.962 23.1025 112.394 22.7091 112.737 22.1976C113.093 21.6726 113.263 21.0173 113.263 20.2169V20.2045Z" fill="white"/>
<path d="M95.8926 30.5643C94.9326 30.5643 94.1038 30.4463 93.4194 30.1979C92.7356 29.9618 92.1552 29.6336 91.6954 29.2402C91.3291 28.9276 91.0298 28.5989 90.7898 28.2532C90.6859 28.1033 90.7312 27.9006 90.8805 27.7963L91.9242 27.068C92.0763 26.9622 92.2835 26.9934 92.4021 27.1354C92.541 27.3023 92.6987 27.4825 92.8794 27.6799C93.1563 27.9812 93.5247 28.2565 94.0117 28.4791C94.4987 28.7028 95.1294 28.8209 95.9066 28.8209C96.9468 28.8209 97.8147 28.5713 98.4845 28.0598C99.1696 27.5618 99.4975 26.775 99.4975 25.6992V23.1978C99.4975 23.1377 99.4493 23.089 99.3887 23.089C99.351 23.089 99.3161 23.1086 99.2959 23.1405C99.1528 23.3667 98.954 23.6383 98.7098 23.9545C98.4454 24.2963 98.0645 24.5976 97.5649 24.8729C97.0633 25.1348 96.4054 25.2664 95.5647 25.2664C94.5245 25.2664 93.5903 25.0168 92.7614 24.5324C91.9312 24.0332 91.2873 23.325 90.8003 22.3808C90.3273 21.4365 90.0894 20.2955 90.0894 18.9578C90.0894 17.6201 90.3273 16.4927 90.787 15.5091C91.2475 14.5255 91.9054 13.7644 92.7356 13.2271C93.5631 12.6898 94.5245 12.4144 95.6163 12.4144C96.4584 12.4144 97.1296 12.5583 97.6166 12.8337C98.1168 13.1091 98.4984 13.4238 98.7614 13.778C99.0035 14.0898 99.2003 14.3584 99.3426 14.5723C99.367 14.6082 99.4068 14.63 99.45 14.63C99.5205 14.63 99.5777 14.5729 99.5777 14.5024V12.9329C99.5777 12.7403 99.734 12.5841 99.9266 12.5841H101.15C101.344 12.5841 101.499 12.7403 101.499 12.9329V25.8308C101.499 26.9324 101.249 27.8373 100.736 28.532C100.236 29.2266 99.5645 29.7381 98.7217 30.0664C97.8796 30.3947 96.9468 30.5643 95.9066 30.5643H95.8926ZM95.8277 23.4959C96.6308 23.4959 97.3019 23.3127 97.8405 22.9451C98.3938 22.5775 98.8145 22.0537 99.0908 21.3713C99.381 20.689 99.5247 19.8763 99.5247 18.9185C99.5247 17.9619 99.381 17.1751 99.104 16.4669C98.8277 15.7587 98.4056 15.1943 97.8538 14.8009C97.3019 14.3939 96.6307 14.1972 95.8145 14.1972C94.9975 14.1972 94.2733 14.4075 93.7082 14.8402C93.1563 15.2595 92.7356 15.8374 92.4587 16.5456C92.1824 17.2661 92.0505 18.0529 92.0505 18.932C92.0505 19.8111 92.1942 20.6103 92.4712 21.3062C92.7614 21.9873 93.1821 22.5258 93.7354 22.9193C94.3005 23.2992 94.9842 23.4959 95.8277 23.4959Z" fill="white"/>
<path d="M82.0299 25.7386C82.0257 25.7303 82.0173 25.7251 82.0075 25.7251C80.6847 25.7231 79.5454 25.4611 78.5875 24.9259C77.6408 24.3874 76.9047 23.614 76.3906 22.6304C75.8778 21.6333 75.6147 20.453 75.6147 19.103C75.6147 17.7518 75.8778 16.6108 76.3906 15.6137C76.9047 14.6177 77.6275 13.8308 78.5757 13.28C79.5231 12.7157 80.6289 12.4403 81.891 12.4403C82.7471 12.4403 83.5361 12.5719 84.2729 12.8473C85.0103 13.1092 85.655 13.5161 86.2082 14.0669C86.7601 14.6042 87.1954 15.2866 87.4975 16.1128C87.8003 16.9255 87.958 17.8833 87.958 18.9849V19.6197C87.958 19.8124 87.8017 19.9686 87.6092 19.9686H77.3973C77.2047 19.9686 77.0485 19.8124 77.0485 19.6197V18.1006C77.0485 17.9079 77.2047 17.7518 77.3973 17.7518H84.2401C84.4326 17.7518 84.591 17.5951 84.5701 17.4036C84.5282 17.0304 84.4187 16.6902 84.2471 16.3882C84.0231 15.9948 83.7071 15.68 83.3129 15.4563C82.918 15.2337 82.4568 15.1157 81.944 15.1157C81.4306 15.1157 80.9178 15.2473 80.4971 15.4956C80.0757 15.7452 79.7596 16.0735 79.5231 16.4927C79.2859 16.912 79.168 17.3718 79.168 17.8698V19.9686C79.168 20.6104 79.2859 21.1612 79.5231 21.621C79.7596 22.0796 80.1015 22.4472 80.5361 22.6956C80.9708 22.9452 81.4968 23.0767 82.0878 23.0767C82.484 23.0767 82.8517 23.0239 83.181 22.9058C83.5096 22.7878 83.7999 22.6304 84.0371 22.4078C84.2122 22.2414 84.3594 22.0465 84.4717 21.8231C84.5415 21.684 84.6824 21.5888 84.8373 21.5992L87.4899 21.7772C87.702 21.7914 87.8533 21.9912 87.7919 22.1948C87.6015 22.8296 87.291 23.3864 86.8522 23.8894C86.3394 24.4796 85.6682 24.9382 84.8519 25.2665C84.0406 25.5932 83.1112 25.7506 82.0515 25.7521C82.0424 25.7521 82.034 25.7469 82.0299 25.7386Z" fill="white"/>
<path d="M65.0009 18.0271C64.9972 18.0271 64.9941 18.0302 64.9941 18.034V25.1279C64.9941 25.3205 64.8379 25.4767 64.6453 25.4767H61.7639C61.5712 25.4767 61.415 25.3205 61.415 25.1279V12.9465C61.415 12.7538 61.5712 12.5977 61.7639 12.5977H64.4879C64.6805 12.5977 64.8367 12.7538 64.8367 12.9465V14.7727C64.8367 14.8242 64.8785 14.8661 64.9301 14.8661C64.9687 14.8661 65.0032 14.8424 65.0177 14.8067C65.3097 14.0872 65.7755 13.5165 66.4289 13.0833C67.1003 12.637 67.9166 12.4268 68.8769 12.4268C69.7722 12.4268 70.5613 12.6235 71.2192 13.0169C71.8903 13.4103 72.4031 13.9612 72.7722 14.6964C73.1406 15.4169 73.3241 16.2825 73.3241 17.2796V25.1279C73.3241 25.3205 73.1678 25.4767 72.9752 25.4767H70.0938C69.9013 25.4767 69.7449 25.3205 69.7449 25.1279V17.9091C69.7449 17.1222 69.5482 16.5063 69.14 16.06C68.7318 15.6137 68.1662 15.3911 67.4556 15.3911C66.9687 15.3911 66.5469 15.4956 66.1793 15.7058C65.8105 15.9161 65.5338 16.2173 65.3236 16.6108C65.1276 17.0026 65.022 17.4725 65.0078 18.0204C65.0077 18.0241 65.0046 18.0271 65.0009 18.0271Z" fill="white"/>
<path d="M55.3032 25.4767C55.1105 25.4767 54.9543 25.3205 54.9543 25.1278V12.9465C54.9543 12.7538 55.1105 12.5977 55.3032 12.5977H58.1846C58.3772 12.5977 58.5334 12.7538 58.5334 12.9465V25.1278C58.5334 25.3205 58.3772 25.4767 58.1846 25.4767H55.3032ZM56.7568 10.9452C56.2305 10.9452 55.7707 10.7743 55.3883 10.4202C55.0072 10.0661 54.8228 9.63333 54.8228 9.1354C54.8228 8.63747 55.0072 8.21698 55.3883 7.86284C55.7707 7.50877 56.2305 7.32556 56.7568 7.32556C57.283 7.32556 57.7441 7.50877 58.1252 7.86284C58.5076 8.21698 58.692 8.63747 58.692 9.1354C58.692 9.63333 58.5076 10.0661 58.1252 10.4202C57.7441 10.7743 57.2965 10.9452 56.7568 10.9452Z" fill="white"/>
<path d="M41.7207 25.4767C41.4125 25.4767 41.1626 25.2268 41.1626 24.9185V8.86728C41.1626 8.55905 41.4125 8.30914 41.7207 8.30914H52.0142C52.3225 8.30914 52.5724 8.55905 52.5724 8.86728V10.7412C52.5724 11.0494 52.3225 11.2993 52.0142 11.2993H45.3662C45.0579 11.2993 44.8081 11.5492 44.8081 11.8574V14.833C44.8081 15.1412 45.0579 15.3911 45.3662 15.3911H51.2507C51.559 15.3911 51.8088 15.641 51.8088 15.9492V17.8231C51.8088 18.1314 51.559 18.3813 51.2507 18.3813H45.3662C45.0579 18.3813 44.8081 18.6311 44.8081 18.9394V24.9185C44.8081 25.2268 44.5582 25.4767 44.2499 25.4767H41.7207Z" fill="white"/>
</svg>
