<svg width="810" height="105" viewBox="0 0 810 105" fill="none" xmlns="http://www.w3.org/2000/svg">
<path d="M289.899 26H269L294.252 103H316.748L342 26H321.101L305.288 84.0025L289.899 26Z" fill="#8C98A4"/>
<path d="M0 0H22V103H0V0Z" fill="#8C98A4"/>
<path d="M43 0H64V103H43V0Z" fill="#8C98A4"/>
<path d="M86 0H149V17.1667H107.286V41.6901H146.143V58.858H107.286V85.8334H149V103H86V0Z" fill="#8C98A4"/>
<path d="M162 0H183V103H162V0Z" fill="#8C98A4"/>
<path d="M195 64.4275C195 36.1726 209 24 230.794 24C252.587 24 265 36.0276 265 64.7174V69.3543H215.062C215.783 86.1626 220.835 91.814 230.505 91.814C238.154 91.814 242.917 87.3221 243.783 79.4977H264.133C262.835 96.5959 248.691 105 230.505 105C207.413 105 195 92.6837 195 64.4275ZM244.938 55.8785C243.928 41.6779 239.021 37.0422 230.505 37.0422C221.99 37.0422 216.649 41.8229 215.206 55.8785H244.938Z" fill="#8C98A4"/>
<path d="M346 64.4275C346 36.1726 360 24 381.794 24C403.587 24 416 36.0276 416 64.7174V69.3543H366.062C366.783 86.1626 371.835 91.814 381.505 91.814C389.154 91.814 393.917 87.3221 394.783 79.4977H415.133C413.835 96.5959 399.69 105 381.505 105C358.412 105 346 92.6837 346 64.4275ZM395.937 55.8785C394.927 41.6779 390.021 37.0422 381.505 37.0422C372.99 37.0422 367.649 41.8229 366.206 55.8785H395.937Z" fill="#8C98A4"/>
<path d="M512 0H533.534V85.8334H574V103H512V0Z" fill="#8C98A4"/>
<path fill-rule="evenodd" clip-rule="evenodd" d="M579 64.4275C579 34.8681 592.455 24 609.776 24C618.364 24 626.238 28.9268 629.387 34.1434V25.7393H650V103.261H629.959V94.1319C626.953 100.218 618.508 105 609.203 105C590.881 105 579 93.1185 579 64.4275ZM615.072 39.2151C625.092 39.2151 630.532 46.8946 630.532 64.4275C630.532 81.9605 625.092 89.7849 615.072 89.7849C605.052 89.7849 599.327 81.9605 599.327 64.4275C599.327 46.8946 605.052 39.2151 615.072 39.2151Z" fill="#8C98A4"/>
<path fill-rule="evenodd" clip-rule="evenodd" d="M686.162 94.1523V103.264H666V0H686.306V34.2767C689.763 28.9252 697.827 24.1523 706.469 24.1523C723.463 24.1523 737 35 737 64.5038C737 94.0088 723.751 105 706.036 105C696.676 105 689.042 100.227 686.162 94.1523ZM700.708 39.4835C710.789 39.4835 716.549 47.0038 716.549 64.5038C716.549 82.0038 710.789 89.8135 700.708 89.8135C690.626 89.8135 685.153 82.0038 685.153 64.5038C685.153 47.0038 690.626 39.4835 700.708 39.4835Z" fill="#8C98A4"/>
<path d="M745 80.2224H765.457C765.747 88.3367 770.1 92.2489 777.79 92.2489C785.479 92.2489 789.833 88.7715 789.833 82.6852C789.833 77.1787 786.496 75.1507 779.241 73.4114L773.002 71.8183C755.301 67.3263 746.45 62.5445 746.45 47.9092C746.45 33.2738 760.089 24 777.5 24C794.911 24 808.113 30.811 808.694 46.8946H788.236C787.801 39.7949 783.448 36.7523 777.21 36.7523C770.971 36.7523 766.619 39.7949 766.619 45.5913C766.619 50.9517 770.1 52.9808 776.194 54.4302L782.578 56.0234C799.409 60.2255 810 64.4275 810 80.0775C810 95.7262 796.072 105 777.21 105C756.751 105 745.434 97.3206 745 80.2224Z" fill="#8C98A4"/>
<path d="M448.56 57.5072C448.56 45.3758 454.311 38.7317 463.225 38.7317C470.558 38.7317 474.728 43.3533 474.728 53.3189V103H495V50.1407C495 32.2332 484.936 24 470.27 24C460.349 24 452.155 29.055 448.56 35.6991V25.7336H428V103H448.56V57.5072Z" fill="#8C98A4"/>
</svg>
