<svg width="4104" height="1182" viewBox="0 0 4104 1182" fill="none" xmlns="http://www.w3.org/2000/svg">
<rect width="4104" height="1182" fill="none"/>
<path d="M592.537 220.331C612.076 200.828 643.72 200.826 663.26 220.325L687.895 244.908L747.895 304.781L684.738 367.83L627.897 311.104L375.334 563.209L470.052 657.753L596.333 531.686L659.489 594.734L533.177 720.772L590.02 777.498L526.865 840.547L284.522 598.62C264.941 579.071 264.941 547.348 284.523 527.801L592.537 220.331Z" fill="#30226F"/>
<path d="M634.093 493.097L697.503 556.148L786.267 467.896L881.369 562.441L564.374 877.604L592.462 905.534C611.986 924.946 643.524 924.946 663.049 905.536L972.471 597.922C992.149 578.359 992.151 546.524 972.472 526.959L786.267 341.824L634.093 493.097Z" fill="#7C3AED"/>
<path d="M3657.57 755.509C3657.62 755.446 3657.57 755.347 3657.49 755.347C3627.69 755.314 3602.26 748.73 3580.62 735.593C3559.22 722.425 3542.55 703.935 3530.91 680.42C3519.23 656.582 3513.59 628.98 3513.59 597.322C3513.59 565.666 3519.23 538.064 3530.91 513.93C3542.55 489.768 3558.88 470.957 3579.67 457.493C3600.43 444.002 3624.99 437.094 3652.98 437.094C3669.03 437.094 3685.08 439.916 3700.51 445.265C3716.25 450.586 3730.39 459.374 3743.29 471.28C3756.2 483.185 3766.61 498.88 3774.14 518.634C3781.7 538.388 3785.47 562.52 3785.47 591.062V602.768C3785.47 607.375 3781.73 611.108 3777.12 611.108H3555.58C3550.98 611.108 3547.24 607.375 3547.24 602.768V578.708C3547.24 574.102 3550.98 570.368 3555.58 570.368H3728.66C3733.26 570.368 3737.03 566.63 3736.73 562.033C3735.78 548.049 3732.43 535.24 3726.62 523.955C3719.68 510.463 3709.96 499.497 3697.38 491.65C3684.76 483.832 3669.97 479.745 3652.65 479.745C3633.81 479.745 3617.43 484.449 3603.58 493.855C3589.73 502.937 3579.36 515.165 3572.12 529.921C3564.89 544.648 3561.1 560.639 3561.1 577.57V604.848C3561.1 628.04 3565.21 647.793 3573.07 664.106C3581.24 680.097 3592.59 692.325 3607.05 700.791C3621.52 708.933 3638.18 713.343 3657.42 713.343C3669.96 713.343 3680.99 711.461 3691.09 707.992C3701.13 704.231 3709.96 698.91 3717.51 692.003C3723.3 686.48 3727.97 679.85 3731.54 672.247C3733.41 668.281 3737.78 665.964 3742.01 667.145L3772.2 675.592C3776.71 676.853 3779.33 681.6 3777.59 685.946C3772.7 698.104 3765.51 709.118 3756.2 718.662C3744.89 730.273 3730.71 739.356 3714.04 745.94C3697.43 752.18 3678.59 755.646 3657.64 755.671C3657.55 755.671 3657.5 755.571 3657.57 755.509Z" fill="#30226F"/>
<path d="M3292.98 755.347C3267.2 755.347 3244.53 748.762 3224.71 735.917C3204.87 722.748 3189.46 704.231 3178.43 680.714C3167.43 656.905 3161.76 628.687 3161.76 596.059C3161.76 563.461 3167.43 535.566 3178.43 512.049C3189.46 488.21 3205.19 470.016 3225.04 456.847C3244.83 444.002 3267.82 437.417 3293.93 437.417C3314.07 437.417 3329.8 440.857 3341.76 447.44C3353.72 454.025 3362.52 461.549 3368.81 470.016C3374.66 477.589 3379.42 484.05 3382.84 489.214C3383.34 489.962 3384.17 490.415 3385.07 490.415C3386.52 490.415 3387.71 489.231 3387.71 487.768V346.992C3387.71 342.386 3391.45 338.652 3396.05 338.652H3426.88C3431.49 338.652 3435.22 342.386 3435.22 346.992V740.746C3435.22 745.353 3431.49 749.086 3426.88 749.086H3397.62C3393.01 749.086 3389.28 745.353 3389.28 740.746V705.352C3389.28 703.352 3387.66 701.732 3385.66 701.732C3384.39 701.732 3383.22 702.386 3382.55 703.445C3379.15 708.761 3374.51 715.151 3368.81 723.042C3362.22 731.509 3353.07 739.033 3341.15 745.618C3329.18 752.201 3313.45 755.347 3293.63 755.347H3292.98ZM3299.3 712.857C3299.3 712.767 3299.37 712.696 3299.47 712.696C3318.57 712.667 3334.57 707.672 3347.43 697.969C3360.63 687.946 3370.73 674.13 3377.3 656.582C3384.24 638.709 3387.71 618.34 3387.71 595.119C3387.71 571.926 3384.24 552.174 3377.63 534.918C3371.01 517.693 3360.97 504.201 3347.75 494.472C3334.52 484.771 3318.47 479.745 3298.99 479.745C3279.47 479.745 3262.15 484.771 3248.62 495.119C3235.39 505.142 3225.33 518.928 3218.72 536.506C3212.1 553.731 3208.98 573.484 3208.98 595.119C3208.98 616.752 3212.43 636.828 3219.04 654.7C3225.98 672.573 3236.04 686.682 3249.27 697.352C3262.75 707.67 3279.05 712.991 3299.14 713.019C3299.24 713.019 3299.3 712.947 3299.3 712.857Z" fill="#30226F"/>
<path d="M3050.23 749.085C3045.63 749.085 3041.89 745.352 3041.89 740.745V449.52C3041.89 444.913 3045.63 441.18 3050.23 441.18H3081.03C3085.65 441.18 3089.37 444.913 3089.37 449.52V740.745C3089.37 745.352 3085.65 749.085 3081.03 749.085H3050.23ZM3066.11 390.063C3056.97 390.063 3048.8 386.948 3042.19 380.656C3035.57 374.396 3032.43 366.87 3032.43 358.082C3032.43 349.322 3035.57 341.797 3042.19 335.507C3048.8 329.246 3056.97 326.1 3066.11 326.1C3075.24 326.1 3083.42 329.246 3089.71 335.507C3096.31 341.797 3099.78 349.322 3099.78 358.082C3099.78 366.87 3096.31 374.396 3089.71 380.656C3083.11 386.948 3075.24 390.063 3066.11 390.063Z" fill="#30226F"/>
<path d="M2907.5 623.042V449.52C2907.5 444.913 2911.24 441.18 2915.84 441.18H2946.68C2951.28 441.18 2955.02 444.913 2955.02 449.52V740.746C2955.02 745.353 2951.28 749.086 2946.68 749.086H2915.84C2911.24 749.086 2907.5 745.353 2907.5 740.746V698.946C2907.5 697.887 2906.64 697.028 2905.58 697.028C2904.83 697.028 2904.15 697.464 2903.83 698.139C2896.57 713.319 2885.41 726.124 2870.7 736.858C2855.25 747.821 2836.06 753.142 2812.77 753.142C2793.6 753.142 2776.29 749.086 2761.17 740.621C2746.05 732.154 2734.44 719.281 2725.95 702.055C2717.46 684.8 2713.04 663.167 2713.04 636.828V449.52C2713.04 444.913 2716.77 441.18 2721.38 441.18H2752.21C2756.82 441.18 2760.55 444.913 2760.55 449.52V633.684C2760.55 656.258 2766.84 674.13 2779.42 687.299C2792.02 700.791 2808.38 707.375 2828.2 707.375C2840.17 707.375 2852.11 704.23 2864.07 698.293C2876.37 692.325 2886.71 682.919 2894.92 670.691C2903.42 658.14 2907.5 642.472 2907.5 623.337V623.042Z" fill="#30226F"/>
<path d="M2492.11 870.719C2469.15 870.719 2449.33 867.898 2432.97 861.96C2416.62 856.316 2402.74 848.468 2391.74 839.062C2382.98 831.59 2375.82 823.73 2370.09 815.465C2367.6 811.883 2368.68 807.035 2372.25 804.542L2397.21 787.132C2400.85 784.601 2405.81 785.347 2408.64 788.741C2411.96 792.733 2415.73 797.039 2420.05 801.76C2426.68 808.962 2435.49 815.545 2447.13 820.866C2458.78 826.215 2473.86 829.038 2492.44 829.038C2517.32 829.038 2538.07 823.071 2554.09 810.843C2570.47 798.937 2578.32 780.126 2578.32 754.406V694.603C2578.32 693.167 2577.16 692.002 2575.71 692.002C2574.81 692.002 2573.98 692.471 2573.49 693.235C2570.07 698.643 2565.32 705.136 2559.48 712.695C2553.16 720.867 2544.05 728.069 2532.1 734.652C2520.11 740.914 2504.37 744.06 2484.27 744.06C2459.39 744.06 2437.05 738.092 2417.23 726.511C2397.38 714.577 2381.98 697.645 2370.34 675.071C2359.02 652.495 2353.34 625.217 2353.34 593.237C2353.34 561.255 2359.02 534.301 2370.02 510.786C2381.03 487.269 2396.76 469.075 2416.62 456.23C2436.4 443.383 2459.39 436.8 2485.5 436.8C2505.64 436.8 2521.69 440.239 2533.34 446.823C2545.3 453.408 2554.42 460.932 2560.71 469.399C2566.5 476.854 2571.21 483.276 2574.61 488.39C2575.2 489.247 2576.15 489.768 2577.18 489.768C2578.87 489.768 2580.23 488.403 2580.23 486.719V449.196C2580.23 444.589 2583.97 440.856 2588.58 440.856H2617.84C2622.46 440.856 2626.18 444.589 2626.18 449.196V757.55C2626.18 783.889 2620.19 805.523 2607.93 822.131C2595.97 838.739 2579.92 850.966 2559.76 858.814C2539.63 866.664 2517.32 870.719 2492.44 870.719H2492.11ZM2490.56 701.732C2509.76 701.732 2525.81 697.352 2538.69 688.563C2551.92 679.773 2561.98 667.251 2568.59 650.937C2575.53 634.624 2578.97 615.194 2578.97 592.296C2578.97 569.427 2575.53 550.615 2568.91 533.684C2562.3 516.752 2552.21 503.26 2539.01 493.854C2525.81 484.125 2509.76 479.421 2490.24 479.421C2470.71 479.421 2453.39 484.449 2439.87 494.795C2426.68 504.818 2416.62 518.634 2409.99 535.565C2403.39 552.79 2400.23 571.602 2400.23 592.62C2400.23 613.636 2403.67 632.743 2410.29 649.379C2417.23 665.663 2427.29 678.538 2440.52 687.946C2454.04 697.028 2470.39 701.732 2490.56 701.732Z" fill="#30226F"/>
<path d="M2160.6 755.347C2160.5 755.148 2160.3 755.023 2160.07 755.023C2128.44 754.975 2101.19 748.713 2078.29 735.917C2055.65 723.042 2038.05 704.552 2025.75 681.037C2013.49 657.199 2007.2 628.98 2007.2 596.705C2007.2 564.401 2013.49 537.123 2025.75 513.285C2038.05 489.474 2055.33 470.661 2078 457.493C2100.66 444.002 2127.1 437.417 2157.28 437.417C2177.76 437.417 2196.63 440.563 2214.24 447.146C2231.88 453.408 2247.29 463.137 2260.52 476.306C2273.72 489.151 2284.13 505.465 2291.36 525.219C2298.6 544.647 2302.37 567.545 2302.37 593.882V609.059C2302.37 613.665 2298.63 617.399 2294.02 617.399H2049.83C2045.22 617.399 2041.48 613.665 2041.48 609.059V572.741C2041.48 568.134 2045.22 564.401 2049.83 564.401H2213.46C2218.06 564.401 2221.85 560.655 2221.35 556.076C2220.35 547.156 2217.73 539.021 2213.63 531.802C2208.27 522.397 2200.71 514.871 2191.29 509.522C2181.84 504.201 2170.82 501.379 2158.55 501.379C2146.27 501.379 2134.01 504.524 2123.95 510.462C2113.87 516.429 2106.32 524.278 2100.66 534.301C2094.99 544.324 2092.17 555.317 2092.17 567.223V617.399C2092.17 632.743 2094.99 645.911 2100.66 656.905C2106.32 667.869 2114.49 676.657 2124.89 682.595C2135.28 688.563 2147.86 691.707 2161.99 691.707C2171.47 691.707 2180.26 690.444 2188.13 687.622C2195.99 684.8 2202.93 681.037 2208.6 675.716C2212.79 671.74 2216.31 667.078 2219 661.735C2220.67 658.411 2224.04 656.136 2227.74 656.385L2291.17 660.64C2296.24 660.98 2299.86 665.755 2298.4 670.624C2293.84 685.799 2286.42 699.111 2275.92 711.137C2263.66 725.247 2247.61 736.21 2228.09 744.06C2208.69 751.871 2186.46 755.634 2161.12 755.669C2160.91 755.67 2160.71 755.545 2160.6 755.347Z" fill="#30226F"/>
<path d="M1753.39 570.985C1753.3 570.985 1753.23 571.058 1753.23 571.148V740.746C1753.23 745.353 1749.49 749.086 1744.89 749.086H1675.98C1671.37 749.086 1667.64 745.353 1667.64 740.746V449.52C1667.64 444.913 1671.37 441.18 1675.98 441.18H1741.12C1745.73 441.18 1749.46 444.913 1749.46 449.52V493.179C1749.46 494.412 1750.46 495.413 1751.7 495.413C1752.62 495.413 1753.45 494.846 1753.79 493.992C1760.77 476.791 1771.91 463.147 1787.54 452.791C1803.59 442.121 1823.12 437.094 1846.08 437.094C1867.49 437.094 1886.36 441.797 1902.09 451.203C1918.14 460.609 1930.4 473.779 1939.23 491.356C1948.04 508.581 1952.43 529.274 1952.43 553.114V740.746C1952.43 745.353 1948.69 749.086 1944.08 749.086H1875.18C1870.58 749.086 1866.83 745.353 1866.83 740.746V568.163C1866.83 549.351 1862.13 534.625 1852.37 523.955C1842.61 513.285 1829.08 507.964 1812.09 507.964C1800.45 507.964 1790.36 510.463 1781.57 515.488C1772.75 520.516 1766.14 527.716 1761.11 537.123C1756.42 546.491 1753.9 557.725 1753.56 570.825C1753.55 570.913 1753.48 570.985 1753.39 570.985Z" fill="#30226F"/>
<path d="M1521.48 749.085C1516.87 749.085 1513.14 745.352 1513.14 740.746V449.52C1513.14 444.913 1516.87 441.18 1521.48 441.18H1590.38C1594.99 441.18 1598.72 444.913 1598.72 449.52V740.746C1598.72 745.352 1594.99 749.085 1590.38 749.085H1521.48ZM1556.24 401.674C1543.65 401.674 1532.66 397.588 1523.51 389.123C1514.4 380.656 1509.99 370.31 1509.99 358.405C1509.99 346.501 1514.4 336.448 1523.51 327.982C1532.66 319.517 1543.65 315.137 1556.24 315.137C1568.82 315.137 1579.85 319.517 1588.96 327.982C1598.11 336.448 1602.52 346.501 1602.52 358.405C1602.52 370.31 1598.11 380.656 1588.96 389.123C1579.85 397.588 1569.15 401.674 1556.24 401.674Z" fill="#30226F"/>
<path d="M1196.69 749.086C1189.32 749.086 1183.34 743.111 1183.34 735.742V351.996C1183.34 344.627 1189.32 338.652 1196.69 338.652H1442.84C1450.21 338.652 1456.18 344.627 1456.18 351.996V396.796C1456.18 404.165 1450.21 410.139 1442.84 410.139H1283.86C1276.49 410.139 1270.52 416.114 1270.52 423.483V494.62C1270.52 501.989 1276.49 507.964 1283.86 507.964H1424.58C1431.95 507.964 1437.93 513.939 1437.93 521.308V566.108C1437.93 573.477 1431.95 579.452 1424.58 579.452H1283.86C1276.49 579.452 1270.52 585.424 1270.52 592.795V735.742C1270.52 743.111 1264.54 749.086 1257.17 749.086H1196.69Z" fill="#30226F"/>
</svg>
