<svg width="2180" height="2171" viewBox="0 0 2180 2171" fill="none" xmlns="http://www.w3.org/2000/svg">
<path d="M980.811 44.4505C1040.2 -14.8097 1136.37 -14.8179 1195.76 44.4323L1270.64 119.128L1453 301.054L1261.04 492.631L1088.28 320.267L320.646 1086.3L608.532 1373.57L992.347 990.514L1184.3 1182.09L800.391 1565.06L973.159 1737.42L781.208 1929L44.6354 1193.9C-14.8797 1134.5 -14.8782 1038.1 44.6384 978.71L980.811 44.4505Z" fill="#30226F"/>
<path d="M1106.87 873.625L1299.56 1065.2L1569.3 797.054L1858.3 1084.32L895 2041.9L980.357 2126.76C1039.69 2185.74 1135.53 2185.74 1194.86 2126.77L2135.15 1192.12C2194.95 1132.68 2194.95 1035.96 2135.15 976.509L1569.3 414L1106.87 873.625Z" fill="#7C3AED"/>
</svg>
