<svg width="154" height="123" viewBox="0 0 154 123" fill="none" xmlns="http://www.w3.org/2000/svg">
<path d="M6.2634 68.541C4.21772 68.541 2.217 68.4988 0.25 68.4174L0.471986 63.1036C44.6283 64.9386 111.189 44.5071 140.017 11.1243L144.041 14.6002C114.58 48.7221 51.2459 68.541 6.2634 68.541Z" fill="white"/>
<path d="M148.568 21.4398L150.787 0.33667L131.398 8.99147L148.568 21.4398Z" fill="white"/>
<path d="M15.8989 122.274H2.93639C1.51453 122.274 0.365234 121.122 0.365234 119.703V82.3858C0.365234 80.964 1.51734 79.8147 2.93639 79.8147H15.8989C17.3208 79.8147 18.4701 80.9668 18.4701 82.3858V119.703C18.4701 121.122 17.318 122.274 15.8989 122.274Z" fill="white"/>
<path d="M49.6186 122.274H36.6561C35.2343 122.274 34.085 121.122 34.085 119.703V79.3258C34.085 77.9039 35.2371 76.7546 36.6561 76.7546H49.6186C51.0405 76.7546 52.1898 77.9067 52.1898 79.3258V119.703C52.1898 121.122 51.0377 122.274 49.6186 122.274Z" fill="white"/>
<path d="M83.3393 122.274H70.3768C68.955 122.274 67.8057 121.122 67.8057 119.703V72.9949C67.8057 71.573 68.9578 70.4237 70.3768 70.4237H83.3393C84.7612 70.4237 85.9105 71.5758 85.9105 72.9949V119.703C85.9105 121.122 84.7584 122.274 83.3393 122.274Z" fill="white"/>
<path d="M117.059 122.274H104.097C102.675 122.274 101.525 121.122 101.525 119.703V59.0657C101.525 57.6438 102.677 56.4945 104.097 56.4945H117.059C118.481 56.4945 119.63 57.6466 119.63 59.0657V119.703C119.63 121.122 118.478 122.274 117.059 122.274Z" fill="white"/>
<path d="M150.779 122.274H137.816C136.394 122.274 135.245 121.122 135.245 119.703V37.5382C135.245 36.1164 136.397 34.9671 137.816 34.9671H150.779C152.201 34.9671 153.35 36.1192 153.35 37.5382V119.7C153.35 121.122 152.198 122.274 150.779 122.274Z" fill="white"/>
</svg>
