<?xml version="1.0" encoding="UTF-8"?>
<svg xmlns="http://www.w3.org/2000/svg" xmlns:xlink="http://www.w3.org/1999/xlink" width="483px" height="100px" viewBox="0 0 482 100" version="1.1">
<g id="surface1">
<path style=" stroke:none;fill-rule:nonzero;fill:rgb(48, 34, 111);fill-opacity:1;" d="M 51.167969 0 L 67.058594 15.832031 L 58.695312 24.167969 L 51.167969 16.667969 L 17.722656 50 L 30.265625 62.5 L 46.988281 45.832031 L 55.351562 54.167969 L 38.625 70.832031 L 46.152344 78.332031 L 37.789062 86.667969 L 1 50 Z M 51.167969 0 "/>
<path style=" stroke:none;fill-rule:nonzero;fill:rgb(48.627451%,22.745098%,92.941176%);fill-opacity:1;" d="M 52.003906 40.832031 L 60.367188 49.167969 L 72.074219 37.5 L 84.617188 50 L 42.808594 91.667969 L 51.167969 100 L 101.339844 50 L 72.074219 20.832031 Z M 52.003906 40.832031 "/>
<path style=" stroke:none;fill-rule:nonzero;fill:rgb(48, 34, 111);fill-opacity:1;" d="M 463.527344 75.75 C 459.554688 75.75 456.167969 74.875 453.285156 73.125 C 450.441406 71.375 448.226562 68.917969 446.679688 65.792969 C 445.128906 62.625 444.378906 58.957031 444.378906 54.75 C 444.378906 50.542969 445.128906 46.875 446.679688 43.667969 C 448.226562 40.457031 450.398438 37.957031 453.160156 36.167969 C 455.917969 34.375 459.179688 33.457031 462.898438 33.457031 C 465.03125 33.457031 467.164062 33.832031 469.214844 34.542969 C 471.304688 35.25 473.183594 36.417969 474.898438 38 C 476.613281 39.582031 477.996094 41.667969 478.996094 44.292969 C 480 46.917969 480.5 50.125 480.5 53.917969 L 480.5 56.582031 L 448.851562 56.582031 L 448.851562 51.167969 L 474.0625 51.167969 C 474.0625 48.875 473.605469 46.792969 472.683594 45 C 471.761719 43.207031 470.46875 41.75 468.796875 40.707031 C 467.121094 39.667969 465.15625 39.125 462.855469 39.125 C 460.351562 39.125 458.175781 39.75 456.335938 41 C 454.496094 42.207031 453.117188 43.832031 452.15625 45.792969 C 451.195312 47.75 450.691406 49.875 450.691406 52.125 L 450.691406 55.75 C 450.691406 58.832031 451.238281 61.457031 452.28125 63.625 C 453.367188 65.75 454.875 67.375 456.796875 68.5 C 458.71875 69.582031 460.933594 70.167969 463.488281 70.167969 C 465.15625 70.167969 466.621094 69.917969 467.960938 69.457031 C 469.296875 68.957031 470.46875 68.25 471.472656 67.332031 C 472.476562 66.375 473.226562 65.167969 473.730469 63.75 L 479.832031 65.457031 C 479.207031 67.5 478.117188 69.332031 476.613281 70.875 C 475.109375 72.417969 473.226562 73.625 471.011719 74.5 C 468.796875 75.332031 466.285156 75.792969 463.488281 75.792969 Z M 463.527344 75.75 "/>
<path style=" stroke:none;fill-rule:nonzero;fill:rgb(48, 34, 111);fill-opacity:1;" d="M 415.070312 75.75 C 411.644531 75.75 408.632812 74.875 406 73.167969 C 403.363281 71.417969 401.316406 68.957031 399.851562 65.832031 C 398.390625 62.667969 397.636719 58.917969 397.636719 54.582031 C 397.636719 50.25 398.390625 46.542969 399.851562 43.417969 C 401.316406 40.25 403.40625 37.832031 406.042969 36.082031 C 408.671875 34.375 411.726562 33.5 415.195312 33.5 C 417.871094 33.5 419.960938 33.957031 421.550781 34.832031 C 423.140625 35.707031 424.308594 36.707031 425.144531 37.832031 C 425.984375 38.917969 426.652344 39.832031 427.113281 40.542969 L 427.65625 40.542969 L 427.65625 20.375 L 433.96875 20.375 L 433.96875 74.917969 L 427.863281 74.917969 L 427.863281 68.625 L 427.113281 68.625 C 426.652344 69.375 425.984375 70.292969 425.144531 71.457031 C 424.269531 72.582031 423.054688 73.582031 421.46875 74.457031 C 419.878906 75.332031 417.789062 75.75 415.15625 75.75 Z M 415.910156 70.082031 C 418.457031 70.082031 420.589844 69.417969 422.304688 68.125 C 424.058594 66.792969 425.398438 64.957031 426.273438 62.625 C 427.195312 60.25 427.65625 57.542969 427.65625 54.457031 C 427.65625 51.375 427.195312 48.75 426.316406 46.457031 C 425.4375 44.167969 424.101562 42.375 422.347656 41.082031 C 420.589844 39.792969 418.457031 39.125 415.867188 39.125 C 413.273438 39.125 410.972656 39.792969 409.175781 41.167969 C 407.417969 42.5 406.082031 44.332031 405.203125 46.667969 C 404.324219 48.957031 403.910156 51.582031 403.910156 54.457031 C 403.910156 57.332031 404.367188 60 405.246094 62.375 C 406.167969 64.75 407.503906 66.625 409.261719 68.042969 C 411.058594 69.417969 413.230469 70.125 415.910156 70.125 Z M 415.910156 70.082031 "/>
<path style=" stroke:none;fill-rule:nonzero;fill:rgb(48, 34, 111);fill-opacity:1;" d="M 381.710938 74.917969 L 381.710938 34 L 388.019531 34 L 388.019531 74.917969 Z M 384.929688 27.207031 C 383.714844 27.207031 382.628906 26.792969 381.75 25.957031 C 380.871094 25.125 380.453125 24.125 380.453125 22.957031 C 380.453125 21.792969 380.871094 20.792969 381.75 19.957031 C 382.628906 19.125 383.714844 18.707031 384.929688 18.707031 C 386.140625 18.707031 387.226562 19.125 388.0625 19.957031 C 388.941406 20.792969 389.402344 21.792969 389.402344 22.957031 C 389.402344 24.125 388.941406 25.125 388.0625 25.957031 C 387.1875 26.792969 386.140625 27.207031 384.929688 27.207031 Z M 384.929688 27.207031 "/>
<path style=" stroke:none;fill-rule:nonzero;fill:rgb(48, 34, 111);fill-opacity:1;" d="M 363.855469 58.167969 L 363.855469 34 L 370.167969 34 L 370.167969 74.917969 L 363.855469 74.917969 L 363.855469 68 L 363.4375 68 C 362.476562 70.082031 360.96875 71.832031 358.964844 73.292969 C 356.914062 74.75 354.363281 75.457031 351.269531 75.457031 C 348.722656 75.457031 346.421875 74.917969 344.414062 73.792969 C 342.40625 72.667969 340.863281 70.957031 339.734375 68.667969 C 338.605469 66.375 338.019531 63.5 338.019531 60 L 338.019531 34 L 344.332031 34 L 344.332031 59.582031 C 344.332031 62.582031 345.167969 64.957031 346.839844 66.707031 C 348.511719 68.5 350.6875 69.375 353.320312 69.375 C 354.910156 69.375 356.496094 68.957031 358.085938 68.167969 C 359.71875 67.375 361.09375 66.125 362.183594 64.5 C 363.3125 62.832031 363.855469 60.75 363.855469 58.207031 Z M 363.855469 58.167969 "/>
<path style=" stroke:none;fill-rule:nonzero;fill:rgb(48, 34, 111);fill-opacity:1;" d="M 308.667969 91.082031 C 305.617188 91.082031 302.984375 90.707031 300.808594 89.917969 C 298.636719 89.167969 296.792969 88.125 295.332031 86.875 C 293.867188 85.625 292.738281 84.292969 291.902344 82.875 L 296.917969 79.375 C 297.507812 80.125 298.214844 80.957031 299.09375 81.917969 C 299.972656 82.875 301.144531 83.75 302.691406 84.457031 C 304.238281 85.167969 306.242188 85.542969 308.710938 85.542969 C 312.015625 85.542969 314.773438 84.75 316.902344 83.125 C 319.078125 81.542969 320.121094 79.042969 320.121094 75.625 L 320.121094 67.332031 L 319.582031 67.332031 C 319.121094 68.082031 318.453125 69 317.617188 70.082031 C 316.777344 71.167969 315.566406 72.125 313.980469 73 C 312.386719 73.832031 310.296875 74.25 307.625 74.25 C 304.320312 74.25 301.351562 73.457031 298.71875 71.917969 C 296.082031 70.332031 294.035156 68.082031 292.488281 65.082031 C 290.984375 62.082031 290.230469 58.457031 290.230469 54.207031 C 290.230469 49.957031 290.984375 46.375 292.445312 43.25 C 293.910156 40.125 296 37.707031 298.636719 36 C 301.265625 34.292969 304.320312 33.417969 307.789062 33.417969 C 310.464844 33.417969 312.597656 33.875 314.144531 34.75 C 315.734375 35.625 316.945312 36.625 317.78125 37.75 C 318.621094 38.832031 319.289062 39.75 319.75 40.457031 L 320.375 40.457031 L 320.375 33.957031 L 326.480469 33.957031 L 326.480469 76.042969 C 326.480469 79.542969 325.683594 82.417969 324.054688 84.625 C 322.464844 86.832031 320.332031 88.457031 317.65625 89.5 C 314.980469 90.542969 312.015625 91.082031 308.710938 91.082031 Z M 308.460938 68.625 C 311.011719 68.625 313.144531 68.042969 314.855469 66.875 C 316.613281 65.707031 317.949219 64.042969 318.828125 61.875 C 319.75 59.707031 320.207031 57.125 320.207031 54.082031 C 320.207031 51.042969 319.75 48.542969 318.871094 46.292969 C 317.992188 44.042969 316.652344 42.25 314.898438 41 C 313.144531 39.707031 311.011719 39.082031 308.417969 39.082031 C 305.824219 39.082031 303.523438 39.75 301.726562 41.125 C 299.972656 42.457031 298.636719 44.292969 297.757812 46.542969 C 296.878906 48.832031 296.460938 51.332031 296.460938 54.125 C 296.460938 56.917969 296.917969 59.457031 297.796875 61.667969 C 298.71875 63.832031 300.054688 65.542969 301.8125 66.792969 C 303.609375 68 305.78125 68.625 308.460938 68.625 Z M 308.460938 68.625 "/>
<path style=" stroke:none;fill-rule:nonzero;fill:rgb(48, 34, 111);fill-opacity:1;" d="M 264.601562 75.707031 C 260.378906 75.707031 256.742188 74.875 253.6875 73.167969 C 250.679688 71.457031 248.339844 69 246.707031 65.875 C 245.078125 62.707031 244.242188 58.957031 244.242188 54.667969 C 244.242188 50.375 245.078125 46.75 246.707031 43.582031 C 248.339844 40.417969 250.636719 37.917969 253.648438 36.167969 C 256.660156 34.375 260.171875 33.5 264.183594 33.5 C 266.902344 33.5 269.410156 33.917969 271.75 34.792969 C 274.09375 35.625 276.140625 36.917969 277.898438 38.667969 C 279.652344 40.375 281.035156 42.542969 281.996094 45.167969 C 282.957031 47.75 283.457031 50.792969 283.457031 54.292969 L 283.457031 57.417969 L 248.796875 57.417969 L 248.796875 50.375 L 272.753906 50.375 C 272.753906 48.75 272.378906 47.292969 271.667969 46.042969 C 270.957031 44.792969 269.953125 43.792969 268.699219 43.082031 C 267.445312 42.375 265.980469 42 264.351562 42 C 262.71875 42 261.089844 42.417969 259.753906 43.207031 C 258.414062 44 257.410156 45.042969 256.660156 46.375 C 255.90625 47.707031 255.53125 49.167969 255.53125 50.75 L 255.53125 57.417969 C 255.53125 59.457031 255.90625 61.207031 256.660156 62.667969 C 257.410156 64.125 258.496094 65.292969 259.878906 66.082031 C 261.257812 66.875 262.929688 67.292969 264.808594 67.292969 C 266.066406 67.292969 267.234375 67.125 268.28125 66.75 C 269.324219 66.375 270.246094 65.875 271 65.167969 C 271.75 64.457031 272.335938 63.582031 272.710938 62.542969 L 283.25 63.25 C 282.703125 65.792969 281.617188 67.957031 279.945312 69.875 C 278.316406 71.75 276.183594 73.207031 273.589844 74.25 C 271 75.292969 268.03125 75.792969 264.644531 75.792969 Z M 264.601562 75.707031 "/>
<path style=" stroke:none;fill-rule:nonzero;fill:rgb(48, 34, 111);fill-opacity:1;" d="M 210.5 51.25 L 210.5 74.917969 L 199.128906 74.917969 L 199.128906 34 L 210 34 L 210 41.207031 L 210.5 41.207031 C 211.421875 38.832031 212.925781 36.957031 215.058594 35.542969 C 217.191406 34.125 219.785156 33.457031 222.835938 33.457031 C 225.679688 33.457031 228.1875 34.082031 230.277344 35.332031 C 232.410156 36.582031 234.039062 38.332031 235.210938 40.667969 C 236.382812 42.957031 236.964844 45.707031 236.964844 48.875 L 236.964844 74.917969 L 225.59375 74.917969 L 225.59375 50.875 C 225.59375 48.375 224.96875 46.417969 223.671875 45 C 222.375 43.582031 220.578125 42.875 218.320312 42.875 C 216.773438 42.875 215.433594 43.207031 214.265625 43.875 C 213.09375 44.542969 212.214844 45.5 211.546875 46.75 C 210.921875 48 210.585938 49.5 210.542969 51.25 Z M 210.5 51.25 "/>
<path style=" stroke:none;fill-rule:nonzero;fill:rgb(48, 34, 111);fill-opacity:1;" d="M 178.601562 74.917969 L 178.601562 34 L 189.972656 34 L 189.972656 74.917969 Z M 184.328125 28.75 C 182.65625 28.75 181.195312 28.207031 179.980469 27.082031 C 178.769531 25.957031 178.183594 24.582031 178.183594 23 C 178.183594 21.417969 178.769531 20.082031 179.980469 18.957031 C 181.195312 17.832031 182.65625 17.25 184.328125 17.25 C 186 17.25 187.464844 17.832031 188.675781 18.957031 C 189.890625 20.082031 190.476562 21.417969 190.476562 23 C 190.476562 24.582031 189.890625 25.957031 188.675781 27.082031 C 187.464844 28.207031 186.042969 28.75 184.328125 28.75 Z M 184.328125 28.75 "/>
<path style=" stroke:none;fill-rule:nonzero;fill:rgb(48, 34, 111);fill-opacity:1;" d="M 134.785156 74.917969 L 134.785156 20.375 L 171.035156 20.375 L 171.035156 29.875 L 146.367188 29.875 L 146.367188 42.875 L 168.609375 42.875 L 168.609375 52.375 L 146.367188 52.375 L 146.367188 74.917969 Z M 134.785156 74.917969 "/>
</g>
</svg>
